<svg id="图层_1" data-name="图层 1" xmlns="http://www.w3.org/2000/svg" viewBox="0 0 75.94 75"><defs><style>.cls-1{fill:#e88a74;}.cls-2{fill:#efc7b9;}.cls-10,.cls-11,.cls-12,.cls-13,.cls-14,.cls-15,.cls-16,.cls-17,.cls-2,.cls-3,.cls-4,.cls-5,.cls-6,.cls-7,.cls-8,.cls-9{fill-rule:evenodd;}.cls-3{fill:#e7ac9b;}.cls-4{fill:#f3a254;}.cls-5{fill:#ee8136;}.cls-6{fill:#36373c;}.cls-7{fill:#e95958;}.cls-8{fill:#e84b49;}.cls-9{fill:#511e13;}.cls-10{fill:#300e08;}.cls-11{fill:#040000;}.cls-12{fill:#e28970;}.cls-13{fill:#f1a1a2;}.cls-14,.cls-18{fill:#fff;}.cls-15{fill:#36373e;}.cls-16{fill:#8d3b29;}.cls-17{fill:#6b2118;}</style></defs><path class="cls-1" d="M75.94,37.5A37.74,37.74,0,0,1,38,75,37.74,37.74,0,0,1,0,37.5,37.74,37.74,0,0,1,38,0,37.74,37.74,0,0,1,75.94,37.5Z"/><g id="形状_87" data-name="形状 87"><path class="cls-2" d="M72.82,46.47s1.1-.69,1.1-1.51c0,0-.27-1-2.94-.54a3.5,3.5,0,0,0-3.73,3.18L65.4,49.46l-1.76,1.16-1.77-.77s5-2.57,5.89-4.62l.27-1.7-.39-2.71-.08-2.52.43-3,.16-3.84-5.65,0-2.9-.23-5-.23a4,4,0,0,1-2.44-3.22S49.67,31.15,48,33.77c0,0-2.25,3.94-1.33,7.28,0,0-2.32-1.68-3.49.54a3.55,3.55,0,0,0,1.53,5A4.21,4.21,0,0,0,47.48,46S49.33,48.28,51,48.8c0,0-3.61-.21-4.95,6.28l-1.25,3.79s-1.49.88-2.12,1.17c0,0-2.93.76-.59,1.58l2.79,0s0,2.57,1.37.62l.43-.73s3.25-4.7,4-5.62L60.42,55s3.3,2.22,4.91.27l4-5s3.47.88,4.16-1.86C73.49,48.41,73.46,46.84,72.82,46.47Z"/></g><g id="形状_86" data-name="形状 86"><path class="cls-3" d="M50,33.34a27.75,27.75,0,0,0,2.7-3.76,9.3,9.3,0,0,1-.59-2.17l-.62,1.24a45.24,45.24,0,0,1-2.71,3.91c-3.85,5.12-1.65,8.95-1.65,8.95C47,37.05,50,33.34,50,33.34ZM55.09,38a.87.87,0,0,0,.11-1.12l-2.94-.7s-.64.36,0,.81C52.3,36.94,54.28,38.7,55.09,38Zm7.1-.39a3.85,3.85,0,0,0,1.65-2s.22-.57-.67-.51l-1.77,1.4S61,37.88,62.19,37.56Zm-7.14,5.23s.3-.76-.28-.77l-.08.31-1.53.19-.62-.08s-.53.54.27.93C52.81,43.37,54.33,44,55.05,42.79Zm8.43.08-1.41-.66s-.28.35.12,1a1.51,1.51,0,0,0,1.45.46.56.56,0,0,0,.31-.89Zm-16.83.47-1-1-1.49.35a2.16,2.16,0,0,0,0,2.24,1.6,1.6,0,0,0,2.24.35A1.81,1.81,0,0,0,46.65,43.34ZM62.54,31.17s-.26-2.27-.82-2.87l-.24-.11A10.12,10.12,0,0,1,61.36,31l-5.14.39a52.73,52.73,0,0,0,5.58.39,10.37,10.37,0,0,1,1.45.12l3.92.23a30.57,30.57,0,0,1,.43,3.56l.12.47.39-4.57-.43-.31Zm-5,19.72.27-.62-4-.66C54.75,52,57.56,50.89,57.56,50.89ZM46.69,53.6,46.18,55a6.5,6.5,0,0,0,2.32,1.35,13.77,13.77,0,0,1-1.61,4.42A21.48,21.48,0,0,0,50.5,56l.15-.54S47.89,55,46.69,53.6ZM44.57,61c-2.61.46-3,0-3,0,0,1.49,3.22.66,3.22.66l.39-.07C45.36,60.73,44.57,61,44.57,61ZM60.7,55c-.1.61,2.55,1.12,2.55,1.12a36.23,36.23,0,0,0,.31-5.34l-.71.07ZM73.37,44.81s.38.23-1,.66c0,0-.82.25,0,1.12l.63-.15.9-1.24S73.53,44.84,73.37,44.81Zm-2.51,1.28c-.43-.3-.51,0-.51,0l.27.58-.12.85L70,48h-.91c-.17.83.83.78.83.78a1.78,1.78,0,0,0,1.33-.7A1.5,1.5,0,0,0,70.86,46.09Z"/></g><g id="形状_90" data-name="形状 90"><path class="cls-4" d="M61.6,49.77c-.55.52-3.73.58-3.73.58A2.42,2.42,0,0,1,54,49.77l-2.83-.93c-3.61.08-4.59,4.57-4.59,4.57,1.07,1.68,4.16,2.09,4.16,2.09l-.08.35-1.13,1.71,0,.23a6.67,6.67,0,0,0,7,1l.59-.62,1.17-.35A3.55,3.55,0,0,0,60,56.63l.51-1.55,2.59-4.54Z"/></g><g id="形状_89" data-name="形状 89"><path class="cls-5" d="M61.36,53.06a4.5,4.5,0,0,0-1.09-1.12C60,52.05,60,53.6,60,53.6A12.76,12.76,0,0,1,60,56l-.39.47c-.61,1.16-2.12.66-2.12.66a4.32,4.32,0,0,0-2.63,0c-3.14.35-3.41-1.9-3.41-1.9-1,.22-2,2.44-2,2.44l.19.16a7,7,0,0,0,7.07.81l.54-.62L59,57.52a2.53,2.53,0,0,0,1.41-2.44ZM46.1,55l1.14-3.57-1.69,1.44A2.39,2.39,0,0,0,46.1,55Z"/></g><g id="形状_99" data-name="形状 99"><path class="cls-6" d="M46.3,62.32l-.51.58c-.95.59-.79-1-.79-1,.1-.46-.31-.28-.31-.28a5,5,0,0,1-3.1-.23c-1.09-.78,1-1.47,1-1.47a10.61,10.61,0,0,0,2-.93L45,58.1l0-1.59a16.84,16.84,0,0,1-.27-3.72c-4.07,1.5-4.28,6.12-4.28,6.12-.33,6,4.32,12.21,4.32,12.21L49.28,71c-1.06-1.87-1.18-7.17-1.18-7.17A15.06,15.06,0,0,1,46.3,62.32ZM56,62.9s-1.56,1.84-5.18,1.63A52.88,52.88,0,0,1,52.22,71l4-.15S56.78,65,56,62.9Z"/></g><g id="形状_97" data-name="形状 97"><path class="cls-7" d="M56.93,58.52l-.63.35a7.63,7.63,0,0,1-6.9-1l-.24.19-2.51,3.37-.35.89s5,4.61,9.41.74C55.71,63.06,57,61.91,56.93,58.52ZM44.69,71.12a11.14,11.14,0,0,0,1,1.51c1,.39,4.16-.16,4.16-.16L49.32,71Zm7.57,1.47H56l.19-1.86L52.3,71Z"/></g><g id="形状_94" data-name="形状 94"><path class="cls-8" d="M44.85,52.33l-.08,1.82A5.42,5.42,0,0,0,45.36,57l.47-2c-.27-.21-.32-2-.32-2l.75-.89C45.78,51.83,44.85,52.33,44.85,52.33Zm4.67,5.46-.79,1s5.85,3,8,.2V58.6A6.84,6.84,0,0,1,49.52,57.79Zm-.63,4.69A2.35,2.35,0,0,1,48,59.8l-1.37,1.59-.16.78c3.25,4.2,8.71,1.47,8.71,1.47l.24-.54C52.82,64.85,48.89,62.48,48.89,62.48Zm4.78-.16a7.07,7.07,0,0,1-4.23-2A3.38,3.38,0,0,0,53.67,62.32Z"/></g><g id="形状_104" data-name="形状 104"><path class="cls-9" d="M68.9,25S63.07,16,54,18.42a10.06,10.06,0,0,0-10.12,3.72L40.3,28.77l0,5.34s-.39,5.53,3.09,7.13a2.44,2.44,0,0,1,3.22-.31,11.34,11.34,0,0,1,2.71-9s2.33-3.16,3-4.27c0,0,.11,2.6,2,3.34l7.18.07a12.8,12.8,0,0,0-.16-3.17,4.32,4.32,0,0,1,1.06,3.21l5.89.23L70,34.85A9.7,9.7,0,0,0,68.9,25Z"/></g><g id="形状_103" data-name="形状 103"><path class="cls-10" d="M52.89,25.36c-2,2.83,1.14,5.42,1.14,5.42l3.1.12C53.35,29.72,52.89,25.36,52.89,25.36ZM60.78,27c1.64,1.22,1.84,4.19,1.84,4.19L64,31.13A4.08,4.08,0,0,0,60.78,27Zm7.45,1.51a6.19,6.19,0,0,1,.71,2.76l-.75.07,0,.24-.31,5.69A14.92,14.92,0,0,0,70,34.66,5.79,5.79,0,0,0,68.23,28.53ZM43.51,15.75s-3,.52-3.68,2a3.24,3.24,0,0,1,.27,1.55S43.27,20,43.87,22a12.18,12.18,0,0,1,4.9-3.41A4.89,4.89,0,0,0,43.51,15.75Z"/></g><g id="形状_37" data-name="形状 37"><path class="cls-11" d="M62.87,38.22a1.11,1.11,0,0,0-1.11,1.11v1.43a1.12,1.12,0,0,0,2.23,0V39.33a1.09,1.09,0,0,0-.25-.68,1.08,1.08,0,0,0,.45-.62c0-.32-.2-.08-.2-.08a1.69,1.69,0,0,1-.71.35A1.11,1.11,0,0,0,62.87,38.22Zm11.24,6.39c-.78-1-3.17-.42-3.17-.42a3.08,3.08,0,0,0-2.77.87,6.68,6.68,0,0,0-.06-3.47A17,17,0,0,1,68,37.37c.67-.45,4-3,3-8.45a15.34,15.34,0,0,0-6.74-9S59.14,16.5,53.91,18a10.45,10.45,0,0,0-5,.16s-.79-2.72-4.55-2.75c0,0-3.16,0-4.52,1.86l.32.5a5.55,5.55,0,0,1,5.14-1.55s2.67.5,2.82,2.37a10.72,10.72,0,0,0-4.35,3l.23.54a10.84,10.84,0,0,1,9.81-3.53A13.73,13.73,0,0,1,64.62,21a15.1,15.1,0,0,1,5.53,7.28,8.15,8.15,0,0,1-2,8.46c0-.23.08-.47.14-.71a20.19,20.19,0,0,0,.12-4.41l.78,0a.78.78,0,0,0,.2-.42s0-2.61-2-3.33A4.58,4.58,0,0,1,68.7,31l-5.85-.07s0-3.16-2.11-4a7.46,7.46,0,0,1,.51,3.83s-5.32.1-6.91-.15a4.32,4.32,0,0,1-1.45-5.31s-.83.35-.9,2a34.54,34.54,0,0,1-3.42,5s-3.1,4.36-2.25,8.14l-.14,0a2.41,2.41,0,0,0-2.9.58,6.72,6.72,0,0,1-2.16-3,11.9,11.9,0,0,1-.51-3.91l-.59.31a8.87,8.87,0,0,0,2.87,7.12,3.73,3.73,0,0,0,.39,4.42,3.1,3.1,0,0,0,4.16.27s.28,1.27,2.71,2.46a4.57,4.57,0,0,0-2.54,1.76L46.4,51.63a2.79,2.79,0,0,0-1.79.66l0,.19a7.33,7.33,0,0,0-4.38,5.89S39.34,62.15,43,69c0,0,1.8,3.6,2.87,4a26.72,26.72,0,0,0,4.24-.12s.23-.11.15-.47c0,0-2-5-1.82-8.32a8,8,0,0,0,2.21.61c.23.84,1.43,5.49,1.3,7.33,0,0-.12.72.23.77,0,0,3.37.35,4,0a1.45,1.45,0,0,0,.31-.89s.64-5.74-.09-9.19v0a10,10,0,0,0,.83-4.33,1.54,1.54,0,0,1,.58-.2s2.66-.27,2.71-2.77a9.47,9.47,0,0,0,2.59,1.1c1.53.37,2.82-1.32,2.82-1.32l3.46-4.57a3.32,3.32,0,0,0,4.19-1.43,2.36,2.36,0,0,0-.31-2.68C74.85,45.43,74.11,44.61,74.11,44.61ZM47.87,46.05s-.3-.62-.67-.31a2.4,2.4,0,0,1-3.77-.7s-1.27-2.53.75-4a2,2,0,0,1,2.67.54l0-.07a.35.35,0,0,0,.19.14h.08c.09,0,.21-.09.08-.46,0,0-1.54-3.22,2-8.64a24.53,24.53,0,0,0,3-4.19,3.87,3.87,0,0,0,2,2.71,9.23,9.23,0,0,0,2.59.35l4.74,0s.85.17.28-2.91a5.94,5.94,0,0,1,.51,2.76s0,.18.43.23l5.14.08a32.84,32.84,0,0,1-.28,5,14.39,14.39,0,0,0,0,4.77,6.9,6.9,0,0,1-.07,3.8s-.35,2.21-6.63,4.57c0,0-.92.5-3.93,0C56.85,49.77,49.78,49.18,47.87,46.05Zm14.41,3.79a17,17,0,0,0,4.62-2.69l0,.33a1.19,1.19,0,0,1-.47.74,13,13,0,0,1-3.07,2.12v0Zm-4.87.6c-.16.24-.65.67-2,.3A3.09,3.09,0,0,1,54.29,50C55.21,50.16,56.24,50.32,57.41,50.44ZM46.6,52.32c-.16.38-.33.84-.5,1.36l-.19.61a2.89,2.89,0,0,1-.12-1.15Zm-1.52.2a3.37,3.37,0,0,1,.77-.34l-.49.49a4.17,4.17,0,0,0,.23,2.6l-.33,1,0-.51A6.34,6.34,0,0,1,45.08,52.52Zm0,6.2,1.61-4.65a7.36,7.36,0,0,0,3.56,1.71l0,0a32.17,32.17,0,0,1-3.65,5.27,2.3,2.3,0,0,0-.39.66,4.74,4.74,0,0,1-.55,1s-.46.4-.47-.62a2,2,0,0,0,0-.7s-.13-.18-.51-.11a6.71,6.71,0,0,1-2.78,0s-.57-.3,0-.66A7.05,7.05,0,0,1,43.47,60,3.1,3.1,0,0,0,45.12,58.72Zm4.36,13.6a14.11,14.11,0,0,1-3.73.11s-.24-.35-.61-1l4-.07Q49.29,71.84,49.48,72.32Zm-.59-1.59-4.12.11A32.44,32.44,0,0,1,41,61.66s-.77-3.56,1-6.2a8.33,8.33,0,0,1,2.49-2.24,7.54,7.54,0,0,0,.22,2.86,15.23,15.23,0,0,0,0,2.12l-.12.36a2.72,2.72,0,0,1-1.57,1s-2,.49-2,1.32c0,0-.18.85,1.18,1a12.62,12.62,0,0,0,2.59,0,1.89,1.89,0,0,0,.24,1s.58.79,1.25-.15l.11-.17a6.38,6.38,0,0,0,1.56,1.21A17.34,17.34,0,0,0,48.89,70.73Zm6.86,1.59H52.5a6.56,6.56,0,0,0,0-1.06l3.37-.13C55.85,71.52,55.81,71.91,55.75,72.32ZM56,70.47l-3.47.21a25.71,25.71,0,0,0-1.31-5.92,4.66,4.66,0,0,0,.73,0,5.19,5.19,0,0,0,4-1.23A32.61,32.61,0,0,1,56,70.47Zm0-8.26c-.67,2.15-4.16,2.05-4.16,2.05a6.85,6.85,0,0,1-5.25-2.15c.09-.19.19-.39.27-.6,0,0,.3.08,2.55-3.27A8.11,8.11,0,0,0,55,59.57a3.16,3.16,0,0,0,1.71-.72A12.05,12.05,0,0,1,56,62.21Zm4.47-7.91a6.61,6.61,0,0,0-.19-.73s-.21-.22.07-1.13c0,0,.17-.38,0-.58,0,0-.18-.15-.39.35a3.24,3.24,0,0,0-.23,1.39,3.83,3.83,0,0,1,0,2.79,2.32,2.32,0,0,1-2,1.24,2.12,2.12,0,0,0-1.42,1s-2.87,1.39-6.51-.9c.35-.52.74-1.12,1.18-1.81a5.79,5.79,0,0,1,1.45-1.12s.41-.3,0-.35a3.1,3.1,0,0,0-1.52.76A6.75,6.75,0,0,1,47,53.42a10.72,10.72,0,0,1,1.31-2.68,4.34,4.34,0,0,1,2.94-1.62,19.12,19.12,0,0,0,2.41.72,2.47,2.47,0,0,0,2.1,1.59,2.31,2.31,0,0,0,2.4-.9,7.2,7.2,0,0,0,3.42-.39l1.13.52Zm12.28-5.11c-.92,1.41-3.1.85-3.1.85a.58.58,0,0,0-.67.23l-3.88,4.81a2,2,0,0,1-2.31.62,10.75,10.75,0,0,1-1.88-.77l0,0,2.26-4a1.54,1.54,0,0,0,.76-.08,24.11,24.11,0,0,0,3-2.36,1.83,1.83,0,0,0,.66-1.24c.89-2.49,2.71-2.56,2.71-2.56a4.51,4.51,0,0,0,1.14,0,8.55,8.55,0,0,1,1.68,0c.77.22.44.7.44.7a8.44,8.44,0,0,1-1.06.85.31.31,0,0,0,.11.54A1.81,1.81,0,0,1,72.74,49.19ZM70.39,46s-.08,0-.08.23a1.27,1.27,0,0,1-.71,1.55s-.55,0-.55.27c0,0-.07.4.94.24a1.58,1.58,0,0,0,.91-1.59S70.72,45.87,70.39,46ZM45.47,42.06a1.38,1.38,0,0,0-1.56,1.16c0,.66.27.35.27.35a4.19,4.19,0,0,1,.31-.54.75.75,0,0,1,1.1-.24,1,1,0,0,0-.82.7c-.29,1.18.63,1.28.63,1.28.38-.09.23-.31.23-.31a.69.69,0,0,1-.31-.7.59.59,0,0,1,.74-.5c.19.2.2,1,.2,1a.34.34,0,0,0,.31.31c.45,0,.28-1.09.28-1.09A1.89,1.89,0,0,0,45.47,42.06Zm6.91-5.58a2.42,2.42,0,0,1,2.24.62.54.54,0,0,0,.58.23c.52-.36,0-.77,0-.77a2.71,2.71,0,0,0-3-.47C51.85,36.45,52.38,36.48,52.38,36.48Zm9.26.46c.44.11.55-.46.55-.46a2,2,0,0,1,1.25-1.09c.37-.27,0-.38,0-.38a2,2,0,0,0-1.8,1C61.15,36.87,61.64,36.94,61.64,36.94Zm-6.08,4.23c.23-.19.08-.62.08-.62A5.39,5.39,0,0,0,53,38.8a1.36,1.36,0,0,0-.71.27l-.08.2c-.41.36.12.5.12.5a4.57,4.57,0,0,1,1.69.66,2.35,2.35,0,0,0-1.34.08c-.29.2.12.23.12.23a4.65,4.65,0,0,1,2.36.74A.45.45,0,0,0,55.56,41.17ZM60,46.47s.4-.23,0-.58a1.16,1.16,0,0,0-.51.12,2.14,2.14,0,0,1-2.2-.47,2,2,0,0,0,.08-2.09s-.25-.15-.23.2a2,2,0,0,1-1.26,2.24,4.12,4.12,0,0,1-.47.12s-.24.08-.16.27c0,0,.52.59,1.69-.31A2.68,2.68,0,0,0,60,46.47Z"/></g><g id="形状_45" data-name="形状 45"><path class="cls-12" d="M61.44,42.33c-.29-.73-.78-.74-.78-.74a.63.63,0,0,0-.67.54,3.15,3.15,0,0,0,.16,1.94c.26.72,1.37.31,1.37.31a1,1,0,0,0,.35-1.32Zm-6.86-.2a4.72,4.72,0,0,1-1.85.28c-.36,0-.15.27-.15.27a3.51,3.51,0,0,0,2.31-.2c.31-.18.16-.38.16-.38C54.88,41.87,54.58,42.13,54.58,42.13Zm9.14.51a3.11,3.11,0,0,1-1.49-.43c-.32,0-.12.27-.12.27,1.21,1,1.8.58,1.8.58C64.12,42.67,63.72,42.64,63.72,42.64Z"/></g><g id="椭圆_3" data-name="椭圆 3"><path class="cls-13" d="M50.65,42.64c-1.23,0-2.23.54-2.23,1.2s1,1.2,2.23,1.2,2.24-.54,2.24-1.2S51.89,42.64,50.65,42.64Zm15.48-.08c-1.16,0-2.1.47-2.1,1s.94,1,2.1,1,2.1-.47,2.1-1S67.29,42.56,66.13,42.56Z"/></g><g id="椭圆_4" data-name="椭圆 4"><path class="cls-14" d="M62.44,38.65a.37.37,0,1,0,.38.37A.37.37,0,0,0,62.44,38.65Z"/></g><g id="形状_65" data-name="形状 65"><path class="cls-2" d="M33.16,28.11l-.32-.85A2.45,2.45,0,0,1,30.53,24s-4,1.57-4.67-1.7a2.46,2.46,0,0,1-3.3,0S16.33,26.83,15.74,19c0,0-6,4.61-3.77,12.09l1.14,2.4L13.23,35A6.22,6.22,0,0,0,17,40.2L8,42S5.12,40.21,4.4,41.2c0,0-.43.35.27,1.59,0,0-3.14,1.58-2.55,3.14,0,0,.25,1.77,5.3-.11l7.38-.31,14,.34s.76,8.6,2.16,11.24c0,0,.14,3.2,1.61,2.52L33,59s3.09.53,3.53-.39c0,0,.22-.85-1.49-1.28l-.59-1.16s-1.29-2.83-1.29-8.33l.39-.43s1-7.68-4.36-7.94l-.23-.35a10.16,10.16,0,0,0,4.39-4.84s3.36.47,4.16-2.4C37.47,31.87,38.81,24.89,33.16,28.11Z"/></g><g id="形状_64" data-name="形状 64"><path class="cls-3" d="M15.74,21.44l.15-2.2-.9.15s-6.1,6.42-2.82,11.16C12.17,30.55,11.71,24.8,15.74,21.44ZM14.13,27s1.7,1.65,2.9.5a1.1,1.1,0,0,0-.27-1.55l-2.12-.12A.82.82,0,0,0,14.13,27ZM25.58,23.5v.08l.51-.24-.58-.77-1,.46-1.93-.66-.55.35C22.67,23.89,25.58,23.5,25.58,23.5ZM23.35,25l-.2.43s-.44,1.39,1.18,1.12A1.88,1.88,0,0,0,25.58,24v-.42l-1.09.5Zm7,0,.08-.62L30,24l-3.34.08S27.75,25.6,30.37,25Zm5.69,7a2.2,2.2,0,0,0,.08-2.9l-.9.23-1,.39-.74,1.43.16,1.43A2.25,2.25,0,0,0,36.06,32Zm-19,1.55-.12.31-.86.31-.59,0L14.91,34s-.57.71.44,1a2,2,0,0,0,2.15-.85S17.67,33.53,17.11,33.53ZM27.7,31.94l-.27.28-.79.15L26,32.22l-.47-.31s-.31.2,0,.58a1.59,1.59,0,0,0,2.23.38S28.33,32.32,27.7,31.94Zm-2.9,8.57-2.86.38c-.07,0,.23.47.23.47l1.14.46,2.35-.19,1.18-.77-.16-.58Zm-11.3.66a6.45,6.45,0,0,0-.43,3.13L7.46,45.51l7.38-.12,0-.62-.39-3.53Zm19.7,6.62-1.73.43-2.32,0,.2,1.74a6.61,6.61,0,0,0,3.73-.38Zm-.12,10.42,0,.55.23.27,1.81.15,1-.23.12-.62C36.15,59.14,33.08,58.21,33.08,58.21ZM5.85,42.13c-.93-1-1.37-.62-1.37-.62l0,.66.31.7.36.12C6.48,43,5.85,42.13,5.85,42.13ZM7,43.41a1.07,1.07,0,0,0-.67.51,1.8,1.8,0,0,0-.35.69c.16.42.47.16.47.16A2.59,2.59,0,0,1,7,43.84C7.31,43.35,7,43.41,7,43.41Z"/></g><g id="形状_73" data-name="形状 73"><path class="cls-15" d="M32.06,59.8s-.71-.14-1.06-2a10.81,10.81,0,0,1-7.14,4,12.71,12.71,0,0,1-8.67-2.67,91.75,91.75,0,0,1,3,11.85s4.34.48,4.86-.54c0,0-.34-6.89-.7-8.45a7.08,7.08,0,0,0,3.29-.35s4.66,8.65,4.71,9.73c0,0,3.27.09,3.65-.43C34,70.92,33.28,63,32.06,59.8Z"/></g><g id="形状_72" data-name="形状 72"><path class="cls-7" d="M29.66,52.52l-1.09.31S19.08,55.64,15.66,52l-.12-1s-1-.22-.63,1.24c0,0-.58,4.63-.11,6.12,0,0,6.79,6.94,14.63,1L31,57.71ZM18.17,70.88l.31,1.4c1,1.89,4.48.43,4.48.43v-2C21.81,71.53,18.17,70.88,18.17,70.88Zm12.2.43-.08,1.51,3.69,0V71Z"/></g><g id="形状_69" data-name="形状 69"><path class="cls-8" d="M30.68,56.55,29.59,52.4l-2.95,1-1.92.27-4.16,0-4-1a1.81,1.81,0,0,1-1.06-1.55l0-.19s-.75-.15-.66.77l.27.74s2.29,3.19,11.46,1.9c0,0,1-.21,1.29.54,0,0,.64,3.87-4.47,4.92a13.2,13.2,0,0,1-6.71-1.35s4.85,4.92,12.55.93l1.69-1.48ZM22.41,57.9A8.28,8.28,0,0,1,16.76,55,4.69,4.69,0,0,0,22.41,57.9Z"/></g><g id="形状_67" data-name="形状 67"><path class="cls-4" d="M28.68,39.38l-1.45.74s-2.42,3.35-5.49.77l-4-.54L14.48,41A13.05,13.05,0,0,0,15,44.69a3.1,3.1,0,0,0,1.1,3s-1.23,2.55-.31,4.41c0,0,5.24,3.9,13.85.16l-.47-4s3.71.29,4.39-.82C33.51,47.4,34.49,39.14,28.68,39.38Z"/></g><g id="形状_66" data-name="形状 66"><path class="cls-5" d="M28.8,45.51c-1.93-1.62-5.61.54-5.61.54-2.67.84-5.26-1.24-5.26-1.24a2,2,0,0,0-2.58.23l.19-1.16.75-.66c1-.41,1-.74,1-.74a6.12,6.12,0,0,0-2.67.31L15,44.85a3.64,3.64,0,0,0,1,2.9,3.38,3.38,0,0,0-.23,2.17c1.64-2.41,7.49-1.12,7.49-1.12,3.3.74,2.67,2.6,2.67,2.6-.61,1.79-5.77,2-5.77,2l1.81.47L27,53.29l2.47-1,0-.66Z"/></g><g id="形状_51" data-name="形状 51"><path class="cls-16" d="M39.43,18l-.23-1.17-1.06-.42.35-1.51s-.61-3.45-4.82-3.14c0,0-.48-6.58-10.24-4.15a11.25,11.25,0,0,0-4.12,3S16.87,7,12,10.67a4.67,4.67,0,0,0-1,2.95,2.77,2.77,0,0,0-1.53,2.79s-4-3.15-6.08,4.22c0,0-.41,3.75,2.94,4.07,0,0-.62,2.79.32,3.25,0,0-2.5.6-2.4,3.92,0,0,.44,2.34,3.46,2.24,0,0-.92,2.93,2.74,2.91a2.88,2.88,0,0,0,3.89,1.36l-.95-2.75L13,33.3l-1.53-3.49-.08-3.41,1.38-3.83,2.31-3.06,1-.66s-1.37,5.64,4.79,4.42l1.68-1a3.12,3.12,0,0,0,3.18.15s1.14,2.94,4.79,1.51a2.44,2.44,0,0,0,2.43,3.3v1.47l1.22-1.28,3.65-.93,1.68-4.73Z"/></g><g id="形状_50" data-name="形状 50"><path class="cls-17" d="M13.19,34.39,12.8,32.8l-1.1-2.1-.47-3,.35-2.17.63-1.78.11-.85S9.7,24.51,9,29c0,0,0,2.71-2.47,3.25a1.69,1.69,0,0,1-2.12-1.62l-.16,1.39,1.34,1.63,1.21.39.87.07v1.59l.82.85.94.35,1,0,.47.7,1.06.89,1.14.19,1-.23L13.58,37ZM6.36,24.66l.71-.74,1-.58a3.14,3.14,0,0,1-3-1.93,4.4,4.4,0,0,1,2-5.27l-.47-.08L5.15,17l-.91,1.24-.59,1.51-.19,1.7L3.93,23,5,24.35Zm38,.35s-.05-5.36-4-5.54l-.24-.54-.31-1.36-.95-.81L38,16.48s1.74-3.76-3.06-4.61c0,0,4,1.67,2,4.81l.47.08s2.11.45,1.06,2.94A2.86,2.86,0,0,1,37,21a2.85,2.85,0,0,1-.31,4.07,2.63,2.63,0,0,1-3.3-.58,2.45,2.45,0,0,1,.32-3.22,6.46,6.46,0,0,0-2.71.81s-4.39,2-4.24-2.24a1.65,1.65,0,0,0-1,1,2.12,2.12,0,0,1-2.2.34s-.76-.27-.74-1.55c0,0-.37,0-1,1a3.64,3.64,0,0,1-3.34,1.2s-2.59-.62-1.64-3.56a3.58,3.58,0,0,1,1.37-1.67,9.13,9.13,0,0,0-4.91,4.58l2.2-1.9.39.11.4,2.91,1.13.85,1.18.62,1.84,0L21.94,23l.51-.62.86.23,1.18.35,1-.39.7.54.83,1,1.49.31,1.25-.19.87-.2s-1.28,2.86,2,3.1l.15,1.47a3,3,0,0,1,4.08-.93,4.45,4.45,0,0,1-.55,6l-1,.5-2.11.12-.48,1.05a6.19,6.19,0,0,0,7.62-.93l.58-1.28.36-2.79-.08-.43S44.57,28,44.38,25ZM18.68,11.45l.82-.85a4.64,4.64,0,0,0-6.35-.47A4.81,4.81,0,0,1,18.68,11.45Zm13,1,1.21-.5.71-.35s0-6.22-9.42-4.07C24.13,7.57,30.84,6.51,31.63,12.49Z"/></g><g id="形状_39" data-name="形状 39"><path class="cls-11" d="M33.16,33.77v0h0ZM43.55,20.9a4.6,4.6,0,0,0-3.14-1.7,2.69,2.69,0,0,0-1.88-2.95s1.23-2.1-1.45-3.95a5.52,5.52,0,0,0-3.22-.77s.25-2.81-3.21-4.15c0,0-6.88-2.65-11.26,2.87,0,0-.63-1.55-3.42-1.51,0,0-5.36,0-5.21,4.76a3.18,3.18,0,0,0-1.65,2.29,2.85,2.85,0,0,0-3.06,0,6.35,6.35,0,0,0-3,5.11s-.28,3.6,3,4a3.23,3.23,0,0,0,0,3,3.62,3.62,0,0,0-2.24,3.3,3.08,3.08,0,0,0,3.53,3.1s-.9,3.21,2.94,2.94a2.9,2.9,0,0,0,3.92,1.5,6.33,6.33,0,0,0,2.14,1.47L7.85,41.71a4.87,4.87,0,0,0-3.06-1.05s-1.65,0-.43,2.06c0,0-2.84,1.32-2.71,2.9,0,0,.42,2.9,5.89.47l7.06-.31a3.6,3.6,0,0,0,1,1.8,7.5,7.5,0,0,0-.46,3.3c-.26.1-.65.32-.65.71a4.27,4.27,0,0,0,.16.74,29.15,29.15,0,0,0-.24,6,1.45,1.45,0,0,0,.5.8,90.54,90.54,0,0,1,3.19,13.19l0,.23a4.4,4.4,0,0,0,5.18.23s.05-8.08-.57-10.57a10.39,10.39,0,0,0,1.35-.08,11.1,11.1,0,0,0,1.36-.29c.58,1,3.83,6.84,4.49,9.51v1.7a7.3,7.3,0,0,0,4.35-.11A37.92,37.92,0,0,0,32.5,60a1.31,1.31,0,0,0,.7-.77c3,.6,3.53-.39,3.53-.39.51-.92-.75-1.43-.75-1.43a3.16,3.16,0,0,1-1.1-1c-1.06-1.66-1.43-7.62-1.48-8.51a2.15,2.15,0,0,0,.38-.32,12.31,12.31,0,0,0-.39-5.27,4.58,4.58,0,0,0-3.66-3.16,11.88,11.88,0,0,0,1.82-1.37,6.9,6.9,0,0,0,1.37-2,4.22,4.22,0,0,0,3.18.75s3.68,0,5-2.95a5.72,5.72,0,0,0,.31-3.48,5.88,5.88,0,0,0,3.14-4.58A6.31,6.31,0,0,0,43.55,20.9ZM14.64,45.12l-7.14.31a10.15,10.15,0,0,1-3.81.85s-2.07-.13-.94-1.7A5.8,5.8,0,0,1,5.15,43s-.68-1-.59-1.4c0,0,0-.42.74-.31a5.6,5.6,0,0,1,2.36.85,5,5,0,0,0,1.09,0l5.41-.8a11.1,11.1,0,0,0,.5,3.75A.19.19,0,0,1,14.64,45.12Zm8,27.35a4.62,4.62,0,0,1-3.88-.27l-.16-1a8.31,8.31,0,0,0,4.12-.11A11.86,11.86,0,0,1,22.6,72.47Zm-4.17-2c-.5-2.74-1.56-8.13-2.64-10.71a12.92,12.92,0,0,0,6.38,2.38c.11,1.19.49,5.28.51,8.17A8.31,8.31,0,0,1,18.43,70.52Zm6-9.17a12.07,12.07,0,0,1-8.83-2.48,1.24,1.24,0,0,1-.59-1,32.73,32.73,0,0,1,.24-5.23,1.82,1.82,0,0,0-.2-.86.79.79,0,0,1,.14-.56,5.58,5.58,0,0,0,.1.68,1.06,1.06,0,0,0,.23.47s1.31,1.61,6.51,1.74c0,0,5.59.07,7.37-1.45a20.38,20.38,0,0,0,1.3,4.66l.06.28A9.81,9.81,0,0,1,24.41,61.35Zm9.26,11.2a9.33,9.33,0,0,1-3.1,0,2.93,2.93,0,0,0,0-1,11.07,11.07,0,0,0,3.17-.14C33.72,71.79,33.71,72.18,33.67,72.55Zm.06-1.85a16.33,16.33,0,0,1-3.27.22s0,0,0,0-.63-2.79-4.38-9.23a9.35,9.35,0,0,0,4.83-3.34c.3,1.07.69,1.5,1,1.66A55.1,55.1,0,0,1,33.73,70.7Zm1.11-13.3c.19.32,1.1.7,1.1.7.42.56-.19.7-.19.7a8.26,8.26,0,0,1-2.52-.2.68.68,0,0,0-.19-.39l-.39.82c-.27.76-.71.11-.71.11a6.76,6.76,0,0,1-.71-2.24c-1.17-2.24-1.68-7.36-1.68-7.36,0-.42-.08-.78-.12-1.12a6.53,6.53,0,0,0,3.44-.26,44.13,44.13,0,0,0,.52,5.56C33.81,56.61,34.84,57.4,34.84,57.4ZM32.76,42.68a13,13,0,0,1,.36,4.72,6.32,6.32,0,0,1-3.76.48c-.29-2.22-.52-2.37-.52-2.37-.52-.56.12,3.87.12,3.87q.13,1.51.33,2.73c-.47.32-2.34,1.31-7.24,1.34,0,0-4.84-.08-6.08-1.63a7.41,7.41,0,0,1,.15-3.88,2.76,2.76,0,0,0,2.05.12s-2.8-.34-2.86-2.55A3.15,3.15,0,0,1,17,43a2.44,2.44,0,0,0-1.87,1.11,19,19,0,0,1-.43-2.84L18,40.74a20,20,0,0,0,3.55.37c.86,1.45,3.12,1.06,3.12,1.06,2.3-.42,2.83-1.68,2.93-2,.39-.16.8-.34,1.22-.56A4.33,4.33,0,0,1,32.76,42.68ZM22.31,41.12c.59,0,1.22,0,1.9-.07a12.7,12.7,0,0,0,2.21-.46A3.42,3.42,0,0,1,22.31,41.12ZM33,33.77l.09.24h0v0c-.28.85-1.53,3.82-5.9,5.49,0,0-5.76,2.09-11.06-.31A4.77,4.77,0,0,1,13.66,35a6,6,0,0,0-.75-2.82,8.87,8.87,0,0,1-1.06-5.66s.82-4.44,3.69-7c0,0-.64,2.64,1.41,3.87,0,0,3.22,1.77,5.57-.77a2.45,2.45,0,0,0,3,.19,2.14,2.14,0,0,0,.23.47A3.14,3.14,0,0,0,23,25.05c-.15.64.12.58.12.58.29,0,.67-.54.67-.54a3.18,3.18,0,0,1,2.77-.91,3.47,3.47,0,0,0,3.51.21,2.47,2.47,0,0,0,2.39,3.18l0,1.39a.39.39,0,0,0,.67-.19,2.4,2.4,0,0,1,2.51-1.17s2.13.58,1.53,3.38a3.27,3.27,0,0,1-4.08,2.81v0h0v0Zm8.24-4.19a1.93,1.93,0,0,0-1-.93,4.57,4.57,0,0,1,.63,3.41s-.51,3.87-5.54,3.68A3.26,3.26,0,0,1,33.14,35a2.66,2.66,0,0,0,.07-.39.66.66,0,0,0,0-.14l.06,0A3,3,0,0,0,36.49,34a4.9,4.9,0,0,0,1.3-5.58,2.85,2.85,0,0,0-4.59-.74l0-.85s-3.19.22-2-2.9a5.38,5.38,0,0,1,2.62-2.68,4.27,4.27,0,0,0-3.33,2.06s-2.51,1.81-4.08-.59a2.87,2.87,0,0,1,.39-2.9s-1.11.33-1.29,2.21A2,2,0,0,1,23,22a2.06,2.06,0,0,1-.15-2.52,2.15,2.15,0,0,0-.71,2.59,4.11,4.11,0,0,1-4.82.51,3.12,3.12,0,0,1-.91-3.72,5.22,5.22,0,0,1,1.89-2.41,4,4,0,0,0-2.47,1.9,12.6,12.6,0,0,0-5,9.65,10.51,10.51,0,0,0,1.53,5s.48.43.51,2.71a4.92,4.92,0,0,0,.9,2.44c-.4.16-2.25.75-3.21-1.7a.52.52,0,0,0-.28.27S6.89,37,8.13,33.57a.62.62,0,0,0-.4.23s-3.55.07-3.13-3.06a3,3,0,0,1,2.94-2.59s0-.23-.71-.43a3.32,3.32,0,0,1,1.3-4.42,2.31,2.31,0,0,0-1.73,1s-3.31-.39-2.51-4.07c0,0,.59-3.12,3.06-4.07A2.39,2.39,0,0,1,9.54,17a3.56,3.56,0,0,1,3.14-3.61,2.09,2.09,0,0,0-1.49,0,4,4,0,0,1,3.37-3.79s3.71-.9,4.63,1.35a10.05,10.05,0,0,1,6-3.52s4.7-.63,7,1.82a3.45,3.45,0,0,1,.91,2.36,3.89,3.89,0,0,0-2,1.32,5.58,5.58,0,0,1,5.26-.27s3.08,1.92.86,4.07c0,0,3.23-.39,2.28,3.56a1.29,1.29,0,0,0,.75-.58s3.12.22,3.6,4A6.19,6.19,0,0,1,41.24,29.58ZM28.13,47c-1.32,1.9-4.35,1.12-4.35,1.12.49.73,2.2.66,2.2.66,2-.25,2.27-1.43,2.27-1.43C28.4,46.89,28.13,47,28.13,47ZM16.4,26.44a.51.51,0,0,0,.75.2c.4-.57-.27-1-.27-1a2.71,2.71,0,0,0-3.61.35c-.24.37-.08.42-.08.42.37.11.86-.27.86-.27A2.31,2.31,0,0,1,16.4,26.44Zm10.32,9.88a2.61,2.61,0,0,1-1.1-3.06,2.18,2.18,0,0,0-.62,1.9c-1.24,1.73-3.65,1.09-3.65,1.09-.25-.08-.28.07-.28.07,0,.37.75.51.75.51a3.86,3.86,0,0,0,3.49-1,1.39,1.39,0,0,0,1.18.81C27,36.53,26.72,36.32,26.72,36.32Zm8-3.91s.42-.54-.24-.54c0,0-.8.19-.55-.89a.55.55,0,0,1,.86-.24.91.91,0,0,1,.28.55s.19.33.47-.16c0,0,.29-1-1-1.12,0,0,.71-1,1.53-.35,0,0,.33.06.2-.43,0,0-.32-.66-1.38-.35a2.54,2.54,0,0,0-1.65,3.18A1,1,0,0,0,34.73,32.41ZM17.61,30.22a1.3,1.3,0,0,0-1.55-1,1.16,1.16,0,0,0-.51.25,2.58,2.58,0,0,1-1.08-.41s-.32,0-.16.37a2.19,2.19,0,0,0,.87.53,1.23,1.23,0,0,0-.1.78l.34,1.52a1.3,1.3,0,0,0,1.55,1,1.29,1.29,0,0,0,1-1.53ZM27,28.16a1.29,1.29,0,0,0-1.54-1,1.22,1.22,0,0,0-.62.37,1.64,1.64,0,0,1-.69-.19s-.53-.18-.39.2a1.48,1.48,0,0,0,.76.49,1.23,1.23,0,0,0,0,.66l.34,1.51a1.29,1.29,0,0,0,2.52-.56Z"/></g><g id="形状_42" data-name="形状 42"><path class="cls-12" d="M21,32.06c-.52-.31-1.42.66-1.42.66-.56.48-.55.85-.55.85.08.84,1.26.89,1.26.89,1,.06.94-1.24.94-1.24C21.32,32.08,21,32.06,21,32.06Zm-4,1.55A2.77,2.77,0,0,1,15,34c-.32,0-.08.23-.08.23a2.92,2.92,0,0,0,1.65,0c.94-.28.83-.58.83-.58C17.25,33.38,17,33.61,17,33.61ZM27.82,32.1c-.07-.25-.47-.12-.47-.12a2.71,2.71,0,0,1-1.61,0c-.32-.15-.27.12-.27.12.39.63,1.8.43,1.8.43C27.92,32.38,27.82,32.1,27.82,32.1Z"/></g><g id="椭圆_1_拷贝" data-name="椭圆 1 拷贝"><path class="cls-13" d="M14.67,34.66c-.95-.06-1.75.36-1.78.93s.69,1.1,1.64,1.16,1.75-.36,1.78-.94S15.62,34.72,14.67,34.66Zm16.24-2.15c-.11-.57-1-.87-1.89-.68s-1.59.81-1.47,1.37,1,.87,1.9.68S31,33.08,30.91,32.51Z"/></g><g id="椭圆_1" data-name="椭圆 1"><path class="cls-14" d="M15.91,29.77a.45.45,0,1,0,0,.9.45.45,0,1,0,0-.9Z"/></g><g id="椭圆_1_拷贝_2" data-name="椭圆 1 拷贝 2"><ellipse class="cls-18" cx="25.29" cy="28.21" rx="0.45" ry="0.45"/></g></svg>