<svg id="图层_1" data-name="图层 1" xmlns="http://www.w3.org/2000/svg" viewBox="0 0 2624 2392"><defs><style>.cls-1{fill:#a0d4c3;}.cls-2{fill:#e88a74;}.cls-3{fill:#56aea2;}.cls-4{fill:#efc7b9;}.cls-10,.cls-11,.cls-12,.cls-13,.cls-14,.cls-15,.cls-16,.cls-17,.cls-18,.cls-19,.cls-4,.cls-5,.cls-6,.cls-7,.cls-8,.cls-9{fill-rule:evenodd;}.cls-5{fill:#e7ac9b;}.cls-22,.cls-6{fill:#f3a254;}.cls-7{fill:#ee8136;}.cls-8{fill:#36373c;}.cls-9{fill:#e95958;}.cls-10{fill:#e84b49;}.cls-11{fill:#511e13;}.cls-12{fill:#300e08;}.cls-13{fill:#040000;}.cls-14{fill:#e28970;}.cls-15{fill:#f1a1a2;}.cls-16{fill:#fff;}.cls-17{fill:#36373e;}.cls-18{fill:#8d3b29;}.cls-19{fill:#6b2118;}.cls-20{fill:#c97a32;}.cls-21{fill:#e5914e;}</style></defs><path class="cls-1" d="M2169.3,1153.22a170.85,170.85,0,0,0-51.45-291.76A170.83,170.83,0,0,0,1969.73,604.9a170.85,170.85,0,0,0-227-190.43,170.84,170.84,0,0,0-278.39-101.33,170.86,170.86,0,0,0-296.27,0A170.85,170.85,0,0,0,889.73,414.47a170.85,170.85,0,0,0-227,190.44A170.83,170.83,0,0,0,514.65,861.47a170.85,170.85,0,0,0-51.45,291.75A170.86,170.86,0,0,0,514.65,1445a170.84,170.84,0,0,0,148.14,256.56A170.86,170.86,0,0,0,889.73,1892a170.86,170.86,0,0,0,278.39,101.31,170.86,170.86,0,0,0,296.27,0A170.86,170.86,0,0,0,1742.79,1892a170.85,170.85,0,0,0,226.94-190.45A170.83,170.83,0,0,0,2117.85,1445a170.85,170.85,0,0,0,51.45-291.76Zm-853.05,716.63c-395.77,0-716.62-320.85-716.62-716.63s320.85-716.63,716.62-716.63,716.62,320.85,716.62,716.63S1712,1869.85,1316.25,1869.85Z"/><path class="cls-2" d="M1923.06,1151.72c0,336-272.35,608.31-608.31,608.31s-608.3-272.35-608.3-608.31,272.35-608.31,608.3-608.31S1923.06,815.75,1923.06,1151.72Z"/><path class="cls-3" d="M1316.25,464.19c-380.54,0-689,308.49-689,689s308.48,689,689,689,689-308.49,689-689S1696.79,464.19,1316.25,464.19Zm0,1342.93c-361.14,0-653.89-292.75-653.89-653.9s292.75-653.9,653.89-653.9,653.91,292.75,653.91,653.9S1677.39,1807.12,1316.25,1807.12Z"/><g id="形状_87" data-name="形状 87"><path class="cls-4" d="M1958.07,1319.41s20.16-12.88,20.09-28c0,0-4.9-18.51-53.81-10,0,0-56.12-6.17-68.16,58.83l-33.71,34.44-32.29,21.52-32.28-14.35s90.89-47.47,107.61-85.37l5-31.57-7.17-50.22-1.44-46.63,7.9-56,2.87-71-103.31-.72-53.09-4.3-91.84-4.3s-40-14.64-44.48-59.55c0,0-45.25,63.57-75.33,111.92,0,0-41.25,73-24.39,134.88,0,0-42.41-31.15-63.85,10,0,0-32.16,56.88,28,91.83,0,0,23.24,4.94,50.22-10.76,0,0,33.87,42.81,64.57,52.37,0,0-66-3.85-90.4,116.23l-23,70.31s-27.18,16.3-38.74,21.52c0,0-53.51,14.07-10.76,29.41l50.94.72s-.29,47.54,25.11,11.48l7.89-13.63s59.38-86.92,73.18-104l177.92-16.5s60.33,41.11,89.68,5l73.18-93.27s63.54,16.18,76-34.43C1970.27,1355.28,1969.83,1326.18,1958.07,1319.41Z"/></g><g id="形状_86" data-name="形状 86"><path class="cls-5" d="M1541.24,1076.2c31.37-37.44,49.5-69.6,49.5-69.6-3.84-1.55-10.76-40.17-10.76-40.17l-11.48,23c-5.73,13.87-49.5,72.46-49.5,72.46-70.48,94.7-30.13,165.72-30.13,165.72C1485,1145,1541.24,1076.2,1541.24,1076.2Zm92.55,85.37s9.69-9.24,2.15-20.8l-53.81-12.92s-11.74,6.64.72,15.07C1582.85,1142.92,1619,1175.38,1633.79,1161.57Zm129.86-7.17s19.51-9.73,30.13-37.31c0,0,4-10.57-12.2-9.33l-32.28,25.83S1742.13,1160.21,1763.65,1154.4Zm-130.58,96.85s5.5-14.1-5-14.35l-1.43,5.74-28,3.59-11.48-1.44s-9.55,10,5,17.22C1592.18,1262,1620,1273,1633.07,1251.25Zm154.25,1.43-25.83-12.19s-5.13,6.37,2.16,19.37c0,0,8.31,11.39,26.54,8.61,0,0,13.21-4.08,5.74-16.5Zm-307.78,8.61-18.65-18.65-27.26,6.46a40.43,40.43,0,0,0,.71,41.61s16.06,22.76,40.9,6.46C1475.24,1297.17,1487.74,1285,1479.54,1261.29ZM1770.1,1036s-4.73-42-15.06-53.09l-4.31-2.15s2.82,43.22-2.15,52.37l-94,7.17s73.18,8.59,101.87,7.18a208.27,208.27,0,0,1,26.55,2.15l71.74,4.31s8.84,52.42,7.89,66l2.15,8.61,7.18-84.66-7.89-5.74ZM1679,1401.19l5-11.48-72.46-12.19C1627.62,1421.6,1679,1401.19,1679,1401.19Zm-198.73,50.22-9.33,26.55s22.43,20.68,42.33,25.11c0,0-4.69,36.8-29.41,81.79,0,0,35.21-33,66-88.25l2.87-10S1502.23,1477.76,1480.26,1451.41Zm-38.74,136.32c-47.72,8.56-54.53.71-54.53.71.57,27.52,58.83,12.2,58.83,12.2l7.18-1.43C1455.84,1583.37,1441.52,1587.73,1441.52,1587.73Zm294.86-111.21c-1.68,11.24,46.64,20.81,46.64,20.81,5.54-12.33,5.74-99,5.74-99l-12.92,1.44Zm231.73-188s7,4.34-18.65,12.19c0,0-15,4.61,0,20.81l11.48-2.87,16.5-23S1971,1289.07,1968.11,1288.56Zm-45.91,23.67c-7.81-5.57-9.33-.72-9.33-.72l5,10.77-2.15,15.78-10,10h-16.5c-3.1,15.38,15.06,14.35,15.06,14.35,17.66-1.8,24.4-12.91,24.4-12.91C1941.75,1326.91,1922.2,1312.23,1922.2,1312.23Z"/></g><g id="形状_90" data-name="形状 90"><path class="cls-6" d="M1752.88,1380.39c-10.07,9.63-68.15,10.76-68.15,10.76-44.45,36.65-71-10.76-71-10.76l-51.65-17.22c-66.1,1.56-83.94,84.66-83.94,84.66,19.48,31.14,76,38.74,76,38.74l-1.43,6.46-20.81,31.56.72,4.31c59.31,51.66,127.71,17.93,127.71,17.93l10.76-11.48,21.52-6.45a65.09,65.09,0,0,0,30.13-21.53l9.33-28.69,47.35-83.94Z"/></g><g id="形状_89" data-name="形状 89"><path class="cls-7" d="M1748.58,1441.37c-5-9.58-20.09-20.81-20.09-20.81-4.36,2.14-5,30.85-5,30.85,2.89,13.38.72,45.2.72,45.2l-7.18,8.61c-11,21.5-38.74,12.2-38.74,12.2-24.26-8.75-48.07,0-48.07,0-57.45,6.44-62.41-35.16-62.41-35.16-17.81,4-37.31,45.2-37.31,45.2l3.59,2.87c59.35,49.15,129.13,15.07,129.13,15.07l10-11.48,31.57-10c27.61-10.32,25.82-45.2,25.82-45.2Zm-279.08,35.87,20.8-66-30.85,26.54C1454.75,1463.37,1469.5,1477.24,1469.5,1477.24Z"/></g><g id="形状_99" data-name="形状 99"><path class="cls-8" d="M1473.08,1612.84l-9.32,10.76c-17.42,10.83-14.35-18.65-14.35-18.65,1.76-8.49-5.74-5-5.74-5-34.42,7.25-56.68-4.3-56.68-4.3-20-14.54,18.66-27.26,18.66-27.26,16.44-5.12,35.87-17.22,35.87-17.22l7.17-16.5.72-29.42c-6.48-23.25-5-68.87-5-68.87-74.49,27.79-78.2,113.35-78.2,113.35-6.1,110.93,78.91,226,78.91,226l82.51-2.87c-19.46-34.63-21.52-132.72-21.52-132.72C1498.07,1636.36,1473.08,1612.84,1473.08,1612.84ZM1651,1623.6s-28.57,34-94.7,30.13c0,0,26.6,102,25.11,119.09l72.46-2.86S1664.73,1662.43,1651,1623.6Z"/></g><g id="形状_97" data-name="形状 97"><path class="cls-9" d="M1667.51,1542.53,1656,1549s-63.91,26.29-126.27-18.66l-4.3,3.59-45.92,62.42-6.46,16.5s91.75,85.35,172.19,13.63C1645.27,1626.47,1669,1605.17,1667.51,1542.53Zm-223.84,233.16c-2.12,0,18.65,28,18.65,28,18,7.32,76-2.87,76-2.87l-10-28S1445.79,1775.69,1443.67,1775.69ZM1582.13,1803H1651l3.59-34.44-71.75,5Z"/></g><g id="形状_94" data-name="形状 94"><path class="cls-10" d="M1446.54,1427.74l-1.44,33.72c.22,36.31,10.77,52.37,10.77,52.37l8.61-38c-5-3.93-5.74-37.31-5.74-37.31l13.63-16.5C1463.67,1418.58,1446.54,1427.74,1446.54,1427.74Zm85.37,101.16-14.34,19.37s107,55.31,147.07,3.58V1544S1595.45,1581.23,1531.91,1528.9Zm-11.47,86.81c-27.06-20.65-15.79-49.51-15.79-49.51l-25.11,29.42-2.87,14.35c59.29,77.91,159.27,27.26,159.27,27.26l4.31-10C1592.37,1659.62,1520.44,1615.71,1520.44,1615.71Zm87.52-2.87c-46.9-4.08-77.48-38-77.48-38C1550.67,1630.68,1608,1612.84,1608,1612.84Z"/></g><g id="形状_104" data-name="形状 104"><path class="cls-11" d="M1886.33,922S1779.8,754.61,1613.7,800c0,0-112.4-29-185.1,68.88l-65.28,122.68.71,99s-7,102.23,56.68,132c0,0,21-27.08,58.83-5.74,0,0-17.46-90.09,49.5-167.16,0,0,42.64-58.36,54.53-78.92,0,0,2,48.06,37.31,61.7l131.29,1.44s2.38-46.66-2.87-58.83c0,0,23.38,25.1,19.37,59.54l107.61,4.31,30.14,65.29S1952.4,1018.14,1886.33,922Z"/></g><g id="形状_103" data-name="形状 103"><path class="cls-12" d="M1593.61,928.4c-37.14,52.54,20.81,100.45,20.81,100.45l56.68,2.15C1602,1009.18,1593.61,928.4,1593.61,928.4Zm144.21,30.85c30.09,22.6,33.72,77.49,33.72,77.49l25.11-1.44C1794.29,968.7,1737.82,959.25,1737.82,959.25Zm136.31,28c12.84,20.93,12.91,50.94,12.91,50.94l-13.63,1.44-.71,4.3L1867,1149.37c8.85-3.17,40.17-48.78,40.17-48.78C1929.69,1032.35,1874.13,987.23,1874.13,987.23Zm-452-236.75s-55.14,9.74-67.44,37.31c0,0,8,19.13,5,28.69,0,0,57.91,12.7,68.87,50.23,0,0,34-42.65,89.68-63.14C1518.28,803.57,1495,742,1422.15,750.48Z"/></g><g id="形状_37" data-name="形状 37"><path class="cls-13" d="M1776.2,1166.59a20.46,20.46,0,0,0-20.45,20.45v26.54a20.45,20.45,0,0,0,40.9,0V1187a20.41,20.41,0,0,0-4.27-12.48,18.45,18.45,0,0,0,7.85-11.55c1-5.8-3.58-1.44-3.58-1.44-2.26,2.74-8.44,5.07-12.91,6.48A20.29,20.29,0,0,0,1776.2,1166.59ZM1981.75,1285c-14.32-17.9-58.12-7.89-58.12-7.89-22.12-4.1-38.72,4.68-50.47,16.05,4.17-15.46,5.67-36.65-1.18-64.12a321,321,0,0,1-1.37-78.19c12.59-8.49,74-55.65,54.46-156.41,0,0-24.46-108.06-123.4-166.45,0,0-93.7-63.5-189.4-35.15,0,0-45.37-11.36-91.12,2.87,0,0-14.32-50.42-83.22-50.94,0,0-57.76.78-82.5,34.44l5.74,9.32s35.2-41,94-28.69c0,0,49,9.18,51.65,43.76,0,0-50.84,18.19-79.63,56l4.3,10s69.28-85.7,179.36-65.28c0,0,104.1-27.14,197.3,43,0,0,66.22,40.83,101.15,134.88,0,0,33.68,85.86-37,156.87.73-4.46,1.59-8.93,2.62-13.38,0,0,7.16-57.08,2.15-81.79l14.35.72a14.61,14.61,0,0,0,3.59-7.89s-.34-48.29-37.31-61.7c0,0,22.91,19.43,25.11,58.11l-106.9-1.43s.05-58.38-38.74-74.62c0,0,14.25,29,9.33,71,0,0-97.24,1.82-126.27-2.87,0,0-49.88-30.86-26.55-98.29,0,0-15.11,6.49-16.5,38,0,0-21.54,40.94-62.41,91.84,0,0-56.91,80.58-41.24,150.57l-2.53-.63s-28.42-15.88-53.09,10.76c0,0-25.57-17.94-39.46-55.24,0,0-12.18-39.19-9.32-72.46l-10.76,5.74s-7.75,81.13,52.37,132c0,0-27.25,42.53,7.17,81.79,0,0,34,36.7,76.05,5,0,0,5,23.48,49.37,45.54-6.19,1.46-29.53,8.44-47.12,33.32l-21.26,21.62c-4.73.23-23.81,1.78-32.64,12.16,0,0-.43,1.23-1,3.51-10.67,4.23-67.93,30.39-80.07,109.13,0,0-15.41,70,50.93,197.29,0,0,32.79,66.67,52.38,73.9,0,0,53.18,2.55,77.48-2.15,0,0,4.34-2,2.87-8.61,0,0-37.34-93.07-33.43-154.16a141.26,141.26,0,0,0,40.6,11.26c4.27,16.36,26,102,23.68,135.72,0,0-2.21,13.47,4.3,14.35,0,0,61.63,6.36,73.9,0,0,0,4.59-4.56,5.74-16.5,0,0,11.75-106.37-1.62-170.24l.18-.51c14.94-28.62,15.42-68.25,15.19-80.31a26.86,26.86,0,0,1,10.64-3.63s48.61-4.91,49.48-50.9c16,11.81,47.37,20,47.37,20,28,6.83,51.66-24.39,51.66-24.39l63.13-84.66c54.24,18.51,76.77-26.54,76.77-26.54,14.64-28.17-5.74-49.51-5.74-49.51C1995.22,1300.1,1981.75,1285,1981.75,1285Zm-480,26.54s-5.39-11.5-12.19-5.74c0,0-38.89,34.32-68.88-12.91,0,0-23.34-46.9,13.63-74.61,0,0,24-16.8,48.79,10l-.49-.86a6.91,6.91,0,0,0,3.33,2.25l0,0s.18,0,.47,0a2.64,2.64,0,0,0,1,0v0c1.63-.31,3.79-1.87,1.45-8.59,0,0-28.27-59.6,35.87-160,0,0,45.14-53.81,53.81-77.48,0,0,6,35.85,37.3,50.22a165.76,165.76,0,0,0,47.35,6.45l86.81.72s15.45,3.11,5-53.81c0,0,9.77,17.52,9.32,50.94,0,0-.66,3.37,7.89,4.31l94,1.43s1.34,54.23-5,93.27c0,0-9.6,57.08-.72,88.24,0,0,10.91,40.85-1.44,70.31,0,0-6.27,41-121.24,84.66,0,0-16.66,9.25-71.75,0C1666.07,1380.39,1536.73,1369.46,1501.78,1311.51Zm263.48,70.2c17.38-7.29,61.32-27.07,84.65-49.86l-.89,6.21c-1,8.49-8.61,13.63-8.61,13.63-37.25,31.25-52.92,38.08-56.06,39.25l.1-.51ZM1676.17,1393c-3,4.41-12.06,12.21-35.92,5.29,0,0-12.43-4.39-20.81-13.83C1636.07,1387.88,1654.89,1390.8,1676.17,1393Zm-197.68,34.6c-2.89,7.14-6,15.53-9,25.22l-3.58,11.27c-1.23-4.38-3.5-14-2.16-21.32Zm-27.65,3.7a61.16,61.16,0,0,1,14-6.3l-9,9.17s-6.44,18.62,4.26,48.16l-6.12,19.28.42-9.33S1442.76,1457.53,1450.84,1431.33Zm.72,114.79,29.4-86c5.27,5.24,25.59,23.07,65,31.7-.14.18-.28.35-.41.54,0,0-28.1,53.13-66.73,97.57a41.22,41.22,0,0,0-7.17,12.2s-6.45,14.67-10,17.93c0,0-8.49,7.37-8.61-11.48,0,0,1-9.09-.72-12.91,0,0-2.46-3.31-9.33-2.15,0,0-36.29,6.93-50.94,0,0,0-10.43-5.42-.71-12.2,0,0,7.37-4.71,30.13-11.48C1421.43,1569.79,1442.93,1563,1451.56,1546.12Zm79.64,251.81s-34.22,6.41-68.16,2.16c0,0-4.35-6.63-11.15-18l72.75-1.32Q1527.67,1789.17,1531.2,1797.93Zm-10.76-29.32-75.29,2c-22.07-38.3-58.09-107.62-69.64-170,0,0-14.2-66,17.94-114.79,0,0,19.37-28,45.37-41.81a143.45,143.45,0,0,0,4.13,53.29s-1.68,23.91-.06,39.33l-2.09,6.59s-7.1,12-28.7,18.65c0,0-36.82,9.14-37.3,24.39,0,0-3.37,15.71,21.52,19.37,0,0,27.47,2.81,47.35,0,0,0-.29,12.8,4.3,18.66,0,0,10.69,14.53,23-2.87,0,0,.73-1.1,1.86-2.94a120.18,120.18,0,0,0,28.57,22.33C1500.13,1653.74,1497.93,1700.47,1520.44,1768.61ZM1646,1797.93h-59.55s.9-6.54.44-19.53l61.71-2.55Q1647.5,1786.64,1646,1797.93Zm3.72-34.18-63.44,3.89c-1.8-23.28-7.55-59.89-24-109.55a101.72,101.72,0,0,0,13.38,0c40.15.71,61.38-11.91,72.19-22.79C1649.59,1647.58,1655.36,1696.52,1649.71,1763.75Zm.58-153.07c-12.16,40-76,38-76,38-60.09-1.13-89.46-31.78-96.09-39.73a100.28,100.28,0,0,0,5-11.21s5.42,1.8,46.62-60.47c5.8,4.18,47.27,32.26,101.89,24.6,0,0,23-2.75,31.37-13.4A223.26,223.26,0,0,1,1650.29,1610.68Zm81.79-146.35a106.53,106.53,0,0,0-3.59-13.63s-3.71-3.91,1.44-20.81c0,0,3-7.14,0-10.76,0,0-3.34-2.82-7.18,6.46,0,0-6,15.33-4.3,25.82,0,0,11.07,28.09-.72,51.66,0,0-8,20.16-36.59,23,0,0-13.2.59-25.83,17.93,0,0-52.59,25.88-119.08-16.54,6.39-9.8,13.53-21,21.51-33.68,0,0,11.34-12.83,26.55-20.8,0,0,7.43-5.51,0-6.46,0,0-13.47,1.28-28.06,14.19-15.39-2.28-51.51-9.88-71.24-32.68,4.94-13.93,13.91-36.63,24-49.67,0,0,21-28.32,53.38-30a334.34,334.34,0,0,0,44.56,13.47c1.64,5.27,9.51,24.41,38.37,29.49,0,0,30.85,7.19,44.22-16.72,9.4,1.24,37.16,3.6,62.52-7.08l20.24,9.45Zm224.56-94.7c-16.79,26.13-56.68,15.78-56.68,15.78a10.56,10.56,0,0,0-12.2,4.3l-71,89c-18.14,22.07-42.33,11.48-42.33,11.48A196,196,0,0,1,1740,1475.9l.67-.81,41.09-73c7.25,1.47,14.15-1.63,14.15-1.63,23.64-15.09,53.81-43.77,53.81-43.77,12.3-11.65,12.19-23,12.19-23,16.23-46,49.51-47.35,49.51-47.35,6.19,1.4,20.8-.71,20.8-.71a152,152,0,0,1,30.85.71c14,4,7.89,12.92,7.89,12.92-2.85,4.14-19.37,15.78-19.37,15.78-5.66,6.91,2.16,10.05,2.16,10.05C1975,1345.59,1956.64,1369.63,1956.64,1369.63Zm-43.05-58.83s-1.36.77-1.44,4.3c0,0,6,21.84-12.91,28.7,0,0-10-.21-10,5,0,0-1.34,7.34,17.22,4.31,0,0,18.94-8.18,16.5-29.42C1922.92,1323.71,1919.62,1308.27,1913.59,1310.8ZM1458,1237.62c-25-2.8-28.7,21.52-28.7,21.52-.8,12.2,5,6.46,5,6.46a71.9,71.9,0,0,1,5.74-10c9.44-12.92,20.09-4.3,20.09-4.3-12.18,1.6-15.07,12.91-15.07,12.91-5.24,21.83,11.48,23.68,11.48,23.68,7-1.57,4.31-5.74,4.31-5.74a12.91,12.91,0,0,1-5.74-12.91c2.94-12.29,13.63-9.33,13.63-9.33,3.46,3.79,3.59,18.65,3.59,18.65.2,5.21,5.74,5.74,5.74,5.74,8.11-.72,5-20.09,5-20.09C1477.57,1241.3,1458,1237.62,1458,1237.62Zm126.27-103.31c26.84-4.94,40.89,11.48,40.89,11.48,5.42,6.29,10.76,4.3,10.76,4.3,9.42-6.63,0-14.35,0-14.35-30-23.22-54.52-8.61-54.52-8.61C1574.64,1133.86,1584.29,1134.31,1584.29,1134.31Zm169.31,8.61c8.1,1.92,10.05-8.61,10.05-8.61,5.38-14.87,22.95-20.09,22.95-20.09,6.69-5.11-.71-7.17-.71-7.17-23-1-33,18.65-33,18.65C1744.66,1141.64,1753.6,1142.92,1753.6,1142.92Zm-111.2,78.2c4.33-3.46,1.43-11.48,1.43-11.48-19.51-25.14-48.78-32.29-48.78-32.29-5.41-.61-12.92,5-12.92,5l-1.43,3.58c-7.53,6.73,2.15,9.33,2.15,9.33,17,2.62,30.85,12.2,30.85,12.2a42.38,42.38,0,0,0-24.39,1.43c-5.37,3.7,2.15,4.31,2.15,4.31,20.39-1.38,43,13.63,43,13.63C1640.68,1227.05,1642.4,1221.12,1642.4,1221.12Zm81.79,98.29s7.34-4.31,0-10.77a20.9,20.9,0,0,0-9.33,2.16s-23.5,9.09-40.18-8.61c0,0,13.74-19.66,1.44-38.74,0,0-4.51-2.73-4.31,3.58,0,0,5.16,33-23,41.61,0,0-3.88,1.16-8.61,2.16,0,0-4.4,1.49-2.87,5,0,0,9.5,11,30.85-5.74C1668.23,1310.08,1688.07,1333.51,1724.19,1319.41Z"/></g><g id="形状_45" data-name="形状 45"><path class="cls-14" d="M1750,1242.64c-5.39-13.47-14.34-13.63-14.34-13.63-11.39.57-12.2,10-12.2,10-4.63,20.5,2.87,35.88,2.87,35.88,4.78,13.28,25.11,5.73,25.11,5.73,14.87-9.52,6.46-24.39,6.46-24.39C1756,1253.31,1750,1242.64,1750,1242.64Zm-125.55-3.59c-13.39,6.22-33.72,5-33.72,5-6.63.45-2.87,5-2.87,5,17.43,7.49,42.33-3.59,42.33-3.59,5.68-3.37,2.87-7.17,2.87-7.17C1630.07,1234.2,1624.46,1239.05,1624.46,1239.05Zm167.17,9.33c-13.94.38-27.27-7.89-27.27-7.89-5.83-.81-2.15,5-2.15,5,22.17,18.4,33,10.76,33,10.76C1799.08,1249,1791.63,1248.38,1791.63,1248.38Z"/></g><g id="椭圆_3" data-name="椭圆 3"><path class="cls-15" d="M1552.72,1248.38c-22.58,0-40.89,10-40.89,22.24s18.31,22.24,40.89,22.24,40.89-10,40.89-22.24S1575.31,1248.38,1552.72,1248.38Zm283-1.43c-21.2,0-38.38,8.67-38.38,19.37s17.18,19.37,38.38,19.37,38.38-8.68,38.38-19.37S1857,1247,1835.75,1247Z"/></g><g id="椭圆_4" data-name="椭圆 4"><path class="cls-16" d="M1768.31,1174.48a6.82,6.82,0,1,0,6.81,6.82A6.82,6.82,0,0,0,1768.31,1174.48Z"/></g><g id="形状_65" data-name="形状 65"><path class="cls-4" d="M1232.74,979.34,1227,963.56s-56-1.92-42.32-61c0,0-73.35,29-85.38-31.57,0,0-29.12,26.75-60.26-.72,0,0-114.08,85.33-124.84-58.83,0,0-110.1,85.4-68.87,223.84l20.81,44.48,2.15,26.55s3.87,71.47,69.59,96.85l-165,33s-52.75-32.76-66-14.34c0,0-7.93,6.4,5,29.41,0,0-57.51,29.2-46.64,58.11,0,0,4.52,32.67,96.86-2.15L897,1301.47l256.12,6.46s13.86,159.2,39.46,208c0,0,2.56,59.29,29.41,46.64l7.18-11.48s56.46,9.88,64.57-7.18c0,0,3.91-15.77-27.27-23.67l-10.76-21.53s-23.53-52.38-23.67-154.24l7.17-7.9s18.24-142.32-79.63-147.07l-4.31-6.46s58.48-30.77,80.35-89.68c0,0,61.42,8.79,76.05-44.48C1311.66,1048.93,1336.15,919.66,1232.74,979.34Z"/></g><g id="形状_64" data-name="形状 64"><path class="cls-5" d="M914.2,855.94l2.87-40.89-16.5,2.87S789,936.7,848.92,1024.54C848.92,1024.54,840.58,918,914.2,855.94Zm-29.41,102.6s31,30.6,53.09,9.32c0,0,11.71-18.13-5-28.69L894.12,937S878.7,941,884.79,958.54ZM1094.28,894v1.45l9.33-4.32-10.77-14.35-17.93,8.61-35.16-12.2-10,6.46C1040.93,901.15,1094.28,894,1094.28,894Zm-40.89,27.26-3.59,7.89s-8.06,25.77,21.52,20.81c0,0,33.59-8.88,23-46.64v-7.87l-20.09,9.31Zm129.85-11.48-7.89-5.74-61,1.44s19.5,27.39,67.44,15.78Zm102.59,141.34c23.19-29.32,1.44-53.81,1.44-53.81l-16.5,4.3-17.94,7.18-13.63,26.54,2.87,26.55C1265,1072.79,1285.83,1051.09,1285.83,1051.09Zm-346.52,28.69-2.15,5.74-15.78,5.74-10.76.72-11.48-2.87s-10.54,13.22,7.89,18.65c0,0,26.92,6.28,39.46-15.78C946.49,1092,949.5,1079.72,939.31,1079.78ZM1133,1050.37l-5,5-14.35,2.87-12.2-2.87-8.61-5.74s-5.55,3.81-.71,10.76c0,0,16.93,23.81,40.89,7.18C1133,1067.59,1144.53,1057.3,1133,1050.37Zm-53.09,158.55s-51.12,7-52.37,7.18,4.3,8.6,4.3,8.6l20.81,8.61,43-3.58,21.53-14.35-2.87-10.76Zm-206.62,12.2s-12.83,31.06-7.89,58.11l-102.6,22.24,134.88-2.15.72-11.48-7.17-65.29Zm360.15,122.68-31.57,7.89-42.32-.72,3.58,32.29s40.12,7.87,68.16-7.18ZM1288,1538.94l-.28,1.49A5.05,5.05,0,0,0,1288,1538.94Zm-56.68-2.15-.72,10,4.31,5,33,2.87,17.93-4.3,1.88-10C1283.46,1552.62,1231.31,1536.79,1231.31,1536.79Zm-497.9-297.74c-17-18.16-25.11-11.48-25.11-11.48l-.72,12.2,5.74,12.91,6.46,2.16C744.84,1254.44,733.41,1239.05,733.41,1239.05Zm20.81,23.68c-8.3,1.61-12.2,9.33-12.2,9.33-5.51,7.49-6.46,12.91-6.46,12.91,3,7.63,8.61,2.87,8.61,2.87,2.25-8.78,10.05-17.22,10.05-17.22C760,1261.48,754.22,1262.73,754.22,1262.73Z"/></g><g id="形状_73" data-name="形状 73"><path class="cls-17" d="M1212.66,1566.2s-13-2.66-19.37-38c0,0-39.78,60.29-130.58,74.61,0,0-76.14,11.46-158.55-49.5,0,0,45.54,142.83,55.24,219.53,0,0,79.37,8.94,89-10,0,0-6.34-127.48-12.91-156.4,0,0,33,4.89,60.26-6.46,0,0,85.12,160.09,86.1,180.08,0,0,59.79,1.76,66.72-7.89C1248.53,1772.11,1235,1626,1212.66,1566.2Z"/></g><g id="形状_72" data-name="形状 72"><path class="cls-9" d="M1168.89,1431.33l-20.09,5.74s-173.52,52.12-236-15.07l-2.15-18.65s-18.83-4.1-11.48,23c0,0-10.66,85.85-2.15,113.36,0,0,124.25,128.48,267.6,17.93l28.7-30.13ZM958.68,1771.39l5.74,25.83c18.72,35,81.79,7.89,81.79,7.89V1767.8C1025.32,1783.38,958.68,1771.39,958.68,1771.39Zm223.13,7.89-1.44,28,67.44.72v-33.72Z"/></g><g id="形状_69" data-name="形状 69"><path class="cls-10" d="M1187.55,1505.94l-20.09-76.77-53.81,17.94-35.15,5-76,.72-73.18-17.94s-19.31-8.37-19.37-28.69l-.72-3.59S895.43,1399.84,897,1417l5,13.63s41.8,59,209.49,35.15c0,0,19.31-3.9,23.67,10,0,0,11.74,71.71-81.78,91.11,0,0-67.09,6-122.69-25.11,0,0,88.7,91.09,229.58,17.22l30.85-27.26Zm-151.38,25.11c-68.57-6.34-103.31-53.81-103.31-53.81C966.26,1552.92,1036.17,1531.05,1036.17,1531.05Z"/></g><g id="形状_67" data-name="形状 67"><path class="cls-6" d="M1151,1188.12l-26.55,13.63s-44.39,62-100.44,14.35l-73.18-10-59.54,12.2s.12,51,8.6,68.15c0,0-7.45,35,20.09,55.25,0,0-22.43,47.22-5.74,81.78,0,0,95.87,72.21,253.26,2.87l-8.61-74.61s68,5.48,80.35-15.07C1239.2,1336.62,1257.15,1183.64,1151,1188.12Z"/></g><g id="形状_66" data-name="形状 66"><path class="cls-7" d="M1153.11,1301.47c-35.27-29.91-102.59,10-102.59,10-48.78,15.6-96.14-23-96.14-23-30.29-17-47.35,4.3-47.35,4.3l3.59-21.52,13.63-12.2c18.52-7.66,17.93-13.63,17.93-13.63-21.93-4.12-48.78,5.74-48.78,5.74l6.45,38c-4.12,32.53,17.94,53.81,17.94,53.81-9.83,18.14-4.3,40.18-4.3,40.18,29.93-44.76,137-20.81,137-20.81,60.26,13.71,48.78,48.07,48.78,48.07-11.21,33.19-105.46,36.59-105.46,36.59l33,8.61,94-10,45.2-19.37.72-12.19Z"/></g><g id="形状_51" data-name="形状 51"><path class="cls-18" d="M1347.53,792.09l-4.3-21.52-19.37-7.89,6.46-28s-11.11-63.89-88.25-58.11c0,0-8.8-121.76-187.25-76.77,0,0-53.06,22.93-75.33,56,0,0-44.56-68.12-134.16.72,0,0-17.82,19-18.65,54.52,0,0-31.59,14.33-28,51.66,0,0-74.17-58.34-111.21,78.2,0,0-7.47,69.4,53.81,75.33,0,0-11.46,51.59,5.74,60.26,0,0-45.7,11.1-43.76,72.46,0,0,7.92,43.4,63.13,41.61,0,0-16.84,54.22,50.22,53.81,0,0,20,45.71,71,25.11l-17.22-50.94-6.46-43-28-64.57-1.43-63.13,25.11-71L902,820.07l17.93-12.19s-25.09,104.49,87.53,81.78L1038.32,871s26.39,19.63,58.11,2.87c0,0,20.8,54.39,87.53,28,0,0-17.23,57.5,44.48,61V990.1l22.24-23.67,66.72-17.22,30.85-87.53Z"/></g><g id="形状_50" data-name="形状 50"><path class="cls-19" d="M867.57,1095.57l-7.17-29.42-20.09-38.74-8.61-56,6.46-40.18,11.47-33,2.16-15.78s-48,30.2-60.27,114.07c0,0,.22,50.17-45.2,60.27,0,0-35.27,8.08-38.74-30.14l-2.87,25.83,24.4,30.13,22.24,7.18,15.78,1.43v29.42l15.07,15.78,17.21,6.46,17.94.71,8.61,12.92,19.37,16.5,20.81,3.59,18.65-4.31-10-28.7ZM742.74,915.49l12.91-13.63L774.3,891.1c-44.15-2.68-54.52-35.87-54.52-35.87-18-70.38,35.87-97.57,35.87-97.57L747,756.22,720.5,774.16l-16.5,23-10.77,28-3.58,31.57,8.61,28.7,19.37,24.39ZM1437.93,922s-.81-99.23-73.9-102.6l-4.3-10L1354,784.2l-17.22-15.07-15.06-5s31.77-69.72-56-85.37c0,0,73.12,30.89,37.3,89l8.61,1.43s38.48,8.34,19.37,54.53c0,0-10.08,18.75-28,23.67,0,0,33.93,40.86-5.74,75.34,0,0-33.5,20.22-60.26-10.77,0,0-22.32-28.19,5.74-59.54,0,0-31.65,2.23-49.5,15.06,0,0-80.2,37-77.49-41.61,0,0-11.73,3.29-17.93,17.94,0,0-14.74,15.34-40.18,6.45,0,0-14.06-5.07-13.63-28.69,0,0-6.72.3-17.94,17.93,0,0-20.5,27.59-61,22.24,0,0-47.34-11.53-30.13-66,0,0,5.93-18,25.11-30.85,0,0-61.55,21.31-89.68,84.66l40.18-35.16,7.17,2.15L925,870.29l20.8,15.79,21.52,11.47,33.72-.71,26.55-12.92,9.32-11.48,15.79,4.31,21.52,6.46,17.94-7.18L1105,886.08l15.07,18.65,27.26,5.74,23-3.59,15.78-3.59s-23.29,53,37.31,57.4l2.87,27.26s29.64-45.7,74.61-17.22c0,0,44.14,58.83-10,110.49l-18.66,9.32-38.74,2.16-8.61,19.37s71,47.78,139.18-17.22l10.77-23.68,6.45-51.65-1.43-7.89S1441.55,976.59,1437.93,922ZM968,670.85l15.07-15.79S936,598.92,866.85,646.45C866.85,646.45,925.93,619.88,968,670.85Zm236.75,19.37,22.24-9.33,12.92-6.46s.7-115.15-172.19-75.33C1067.73,599.1,1190.42,579.51,1204.76,690.22Z"/></g><g id="形状_39" data-name="形状 39"><path class="cls-13" d="M1232.74,1084.09s0,.2-.14.58l.28.06C1232.83,1084.51,1232.79,1084.3,1232.74,1084.09ZM1422.86,845.9s-21.17-29.14-57.39-31.57c0,0,6-42.16-34.44-54.52,0,0,22.42-38.85-26.54-73.18,0,0-28.24-18.23-58.83-14.35,0,0,4.55-52-58.83-76.76,0,0-125.77-49.15-205.91,53.09,0,0-11.37-28.67-62.41-28,0,0-98-.32-95.42,88.24,0,0-23.88,10.59-30.13,42.33,0,0-24.43-17.83-56,.72,0,0-50.79,28-54.53,94.7,0,0-5.12,66.69,55.24,73.89,0,0-14.93,27.62.72,55.25,0,0-39,13.82-40.89,61,0,0-.66,60.92,64.57,57.39,0,0-16.41,59.42,53.8,54.53,0,0,18,47.21,71.59,27.84,9.17,10,21.72,19.57,38.87,27.11L770,1231.16s-23.25-20.36-56-19.37c0,0-30.22.44-7.89,38,0,0-52,24.58-49.51,53.8,0,0,7.7,53.58,107.62,8.61l129.14-5.74s3.53,20.18,18,33.45c-3.21,8.21-10.67,31.08-8.32,61.1-4.71,1.84-11.89,5.83-11.8,13.07a70.64,70.64,0,0,0,2.87,13.63s-10.31,77.49-4.31,111.2a26,26,0,0,0,9.06,14.84c7.52,22.38,36,111.76,58.38,244.15l.72,4.31s39.65,36.66,94.7,4.3c0,0,.88-148.87-10.27-195.65a169.88,169.88,0,0,0,24.62-1.64,189.4,189.4,0,0,0,24.78-5.35c11.15,20,70,127,82.11,176.1v31.57s45.27,13.36,79.64-2.16c0,0,7.47-116.75-32.8-239,9.11-3.18,12.71-14.27,12.71-14.27,55.87,11.06,64.57-7.17,64.57-7.17,9.38-17-13.63-26.55-13.63-26.55a57.88,57.88,0,0,1-20.09-19.37c-19.26-30.67-26.14-139.94-27.13-157.57a31.17,31.17,0,0,0,7-6c8.53-48.65-7.17-97.57-7.17-97.57-15.74-47.15-55.17-56.63-66.94-58.42a213.37,213.37,0,0,0,33.22-25.52s16.4-16,25.2-37.45c6.13,5,25,17.45,58,13.78,0,0,67.27-.34,91.83-54.53,0,0,14.85-34,5.74-64.57,0,0,49.88-22.33,57.4-84.65C1441.52,930.56,1450.75,885.73,1422.86,845.9ZM894.12,1294.3,763.54,1300s-37.42,17.13-69.59,15.78c0,0-38-2.4-17.22-31.57,0,0,19.72-22.72,43.77-29.41,0,0-12.29-19.13-10.77-25.83,0,0-.93-7.74,13.64-5.74,0,0,25.72,2.8,43,15.78,0,0,6.59.89,20.09-.71l98.76-14.7c-.38,11.13-.28,40.41,9.18,69.51C894.33,1293.53,894.22,1293.91,894.12,1294.3Zm145.63,506.5s-38.12,15.9-71-5c0,0-1.06-6.57-3-17.6,13.24,2.61,50.27,8.44,75.44-1.93A242.55,242.55,0,0,1,1039.75,1800.8Zm-76.36-36.15c-9-50.7-28.33-150.25-48-198.06,22.15,15.59,65,40.53,116.38,43.91,2.12,22.08,9,97.76,9.49,151.22C1030.14,1764.94,994.69,1773.7,963.39,1764.65Zm109.37-169.75s-80.29,15.58-161.43-45.91c0,0-10.06-5.33-10.76-19.38,0,0-2-58.37,4.31-96.85,0,0,0-11.11-3.59-15.78,0,0-1-6,2.31-10.29.47,4,1.12,8.19,2,12.44,0,0,1.08,5.57,4.31,8.61,0,0,24,29.87,119.09,32.28,0,0,101.91,1.42,134.75-26.57,10.11,57.25,23.81,86.12,23.81,86.12.28,1.82.58,3.58.88,5.27C1180.3,1536.91,1146.36,1580.53,1072.76,1594.9Zm169.31,207.34s-35.94,5.82-56.68,0c0,0,1.8-6.24.07-19.16,20,3.44,49.41-1.18,57.85-2.65C1243.21,1788.09,1242.82,1795.41,1242.07,1802.24Zm1.16-34.23c-13.38,4.13-51.54,4.15-59.82,4.11-.06-.24-.11-.48-.17-.73,0,0-11.41-51.62-80.12-170.93,27.75-9.21,65.15-27.34,88.43-61.75,5.42,19.75,12.64,27.6,18,30.67C1213.51,1584.15,1241.26,1689.85,1243.23,1768Zm20.36-246.29c3.35,5.87,20.09,12.92,20.09,12.92,7.71,10.48-3.58,12.91-3.58,12.91-19.58,2.91-45.92-3.59-45.92-3.59.1-3.35-3.59-7.17-3.59-7.17l-7.17,15.06c-4.91,14.19-12.92,2.16-12.92,2.16-7.54-7.71-12.91-41.61-12.91-41.61-21.55-41.35-30.85-136.32-30.85-136.32-.74-7.57-1.46-14.37-2.17-20.49,30.53,4.41,50.53.27,62.85-4.91-1.15,30.8,9.63,102.89,9.63,102.89C1244.69,1507.06,1263.59,1521.72,1263.59,1521.72Zm-38-272.62c12.44,46.16,6.46,87.52,6.46,87.52-27.52,15.28-62.75,9.85-68.71,8.78-5.33-41.14-9.49-43.93-9.49-43.93-9.57-10.2,2.15,71.74,2.15,71.74,1.58,18.65,3.72,35.52,6.14,50.62-8.83,5.93-43.25,24.2-132.41,24.71,0,0-88.65-1.47-111.2-30.13,0,0-10.07-40.12,2.45-71.78,9.3,4.73,21.58,6.54,37.72,2.19,0,0-51.12-6.36-52.37-47.35,0,0,1.88-34.23,30.85-47.35,0,0-20.49-.37-34.31,20.26-1.85-8.58-7.41-35.6-7.92-52.17l60.85-9.06c9.91,2.16,32.41,6.2,64.84,7,15.79,26.86,57.16,19.59,57.16,19.59,41.71-7.78,51.6-30.94,53.44-36.71a249.52,249.52,0,0,0,22.84-10.41C1212.5,1197.11,1225.57,1249.1,1225.57,1249.1Zm-191.13-28.77c10.71,0,22.31-.45,34.73-1.36,0,0,16.75-1.33,40.56-8.45C1076.69,1240.37,1044.58,1226.16,1034.44,1220.33Zm195.43-136.24,1.59,4.49s0-.09,0-.14l.22.88-.26-.74c-5.19,16-28.28,71-107.77,101.69,0,0-105.48,38.62-202.31-5.74,0,0-43.17-20.44-45.2-76.77,0,0,1.44-22-13.63-52.37,0,0-30.61-51.78-19.37-104.74,0,0,14.84-82.12,67.44-130.58,0,0-11.77,49,25.82,71.75,0,0,58.85,32.67,101.88-14.35,0,0,27.7,24.91,55.24,3.58a50.93,50.93,0,0,0,4.13,8.6c-35.54-.24-50,33-50,33-2.74,11.88,2.15,10.76,2.15,10.76,5.28-.3,12.2-10,12.2-10,19.14-20,43.63-17.92,50.49-16.84,12.81,9.73,33.19,15.93,64.29,3.93,0,0-13.56,53.74,43.77,58.83l.72,25.83s8.51,7.59,12.19-3.59c0,0,16.38-28.86,45.92-21.52,0,0,39,10.61,28,62.41,0,0-8.29,65.47-74.48,52.3,0,.14,0,.27.08.41l-.46-.06c0-.15.07-.29.1-.41C1231.7,1084.49,1230.8,1084.3,1229.87,1084.09Zm150.67-77.49s-3.53-9.87-18.66-17.21c0,0,19.33,26.8,11.48,63.13,0,0-9.17,71.64-101.16,68.16,0,0-25,1-39.51-13.59a63.4,63.4,0,0,0,1.1-7.54c.07-.9.1-1.8.13-2.7l.8-.27c4,2.1,29.52,13.94,59-8.9,0,0,50.17-42.63,23.67-103.32,0,0-31.07-57.14-83.94-13.63l-.72-15.78s-58.27,4.08-36.58-53.81c0,0,10.55-30.07,48.06-49.5,0,0-37.58.29-61,38,0,0-45.81,33.65-74.61-10.76,0,0-12.75-23.37,7.17-53.81,0,0-20.38,6.1-23.67,40.9,0,0-22.26,18.62-44.48.72,0,0-17.92-16.1-2.87-46.64,0,0-24.85,17-12.92,48.07,0,0-41.54,38.74-88.24,9.33,0,0-32.86-22.64-16.5-68.88,0,0,11.08-30.63,34.43-44.48,0,0-29.59,6.46-45.19,35.16,0,0-84.57,55.73-91.12,178.64,0,0,1.66,54.77,28,92.55,0,0,8.8,8,9.33,50.22,0,0,.38,22,16.41,45.15-7.55,3-41.24,13.65-58.74-31.52,0,0-3.83,1.54-5,5,0,0-62.74,4.4-40.18-58.83a10.84,10.84,0,0,0-7.17,4.31s-65,1.19-57.4-56.68c0,0,5.22-46.83,53.81-48.07,0,0-.9-4.24-12.91-7.89,0,0-26.45-46.92,23.67-81.79,0,0-20.58.86-31.57,18.65,0,0-60.59-7.19-45.91-75.33,0,0,10.83-57.9,56-75.33,0,0,30.65-9.66,47.35,15.07,0,0-1.19-59.2,57.39-66.72,0,0-14-6-27.26,0,0,0-1-53.7,61.7-70.31,0,0,67.84-16.68,84.66,25.11,0,0,44.54-57.81,110.48-65.29,0,0,85.91-11.68,128.42,33.72,0,0,20.21,23,16.5,43.77,0,0-27.6,8.55-35.87,24.39,0,0,49.13-31.24,96.14-5,0,0,56.28,35.66,15.78,75.33,0,0,59-7.26,41.61,66,0,0,10.3-3,13.63-10.76,0,0,57.17,4.05,66,74.61C1430,898.27,1440.78,965.71,1380.54,1006.6Zm-239.63,322.13c-24.21,35.18-79.63,20.81-79.63,20.81,8.88,13.43,40.17,12.19,40.17,12.19,36.15-4.64,41.62-26.54,41.62-26.54C1145.74,1327.13,1140.91,1328.73,1140.91,1328.73ZM926.4,948.49c4.29,9.49,13.63,3.59,13.63,3.59,7.3-10.55-5-17.94-5-17.94-41.27-24.65-66,6.46-66,6.46-4.33,6.91-1.44,7.89-1.44,7.89,6.76,2.07,15.78-5,15.78-5C908.69,932.82,926.4,948.49,926.4,948.49Zm188.69,183c-32.64-17.58-20.09-56.68-20.09-56.68-15.23,12.91-11.48,35.16-11.48,35.16-22.67,32-66.72,20.08-66.72,20.08-4.57-1.3-5,1.44-5,1.44.16,6.75,13.64,9.33,13.64,9.33,40.61,7.71,63.85-18.66,63.85-18.66a25.74,25.74,0,0,0,21.52,15.07C1120.09,1135.35,1115.09,1131.44,1115.09,1131.44ZM1261.44,1059s7.73-9.9-4.3-10c0,0-14.58,3.53-10.05-16.5,0,0,4.22-11.19,15.79-4.3a17.55,17.55,0,0,1,5,10s3.55,6.1,8.61-2.87c0,0,5.32-18.5-18.66-20.8,0,0,13-17.5,28-6.46,0,0,6.11,1.18,3.59-7.89,0,0-5.78-12.31-25.11-6.46,0,0-41.09,12.19-30.13,58.83C1234.18,1052.52,1242.87,1071.83,1261.44,1059Zm-313.08-40.62A23.69,23.69,0,0,0,910.5,1005a46.18,46.18,0,0,1-19.41-7.48s-6-.28-3,6.77a37.43,37.43,0,0,0,15.46,9.7,23.54,23.54,0,0,0-1.43,14.7l6.27,28a23.68,23.68,0,1,0,46.21-10.35Zm171.47-38a23.67,23.67,0,0,0-40.2-11.2,31.77,31.77,0,0,1-11.9-3.42s-9.81-3.29-7.17,3.59c0,0,3.81,6.33,13.52,9.32a23.49,23.49,0,0,0-.45,12.06l6.27,28a23.67,23.67,0,1,0,46.2-10.34Z"/></g><g id="形状_42" data-name="形状 42"><path class="cls-14" d="M1009.62,1052.52c-9.37-5.77-25.83,12.2-25.83,12.2-10.36,8.8-10,15.78-10,15.78,1.4,15.56,23,16.5,23,16.5,17.82,1,17.22-23,17.22-23C1016.33,1053,1009.62,1052.52,1009.62,1052.52Zm-73.18,28.7a49.68,49.68,0,0,1-35.87,7.17c-6,1-1.43,4.31-1.43,4.31,10.34,5.74,30.13.71,30.13.71,17.19-5.26,15.07-10.76,15.07-10.76C941.88,1077,936.44,1081.22,936.44,1081.22Zm198.73-28c-1.32-4.64-8.61-2.15-8.61-2.15-13.8,4.89-29.41-.72-29.41-.72-5.81-2.85-5,2.15-5,2.15,7.16,11.67,33,7.89,33,7.89C1137,1058.45,1135.17,1053.24,1135.17,1053.24Z"/></g><g id="椭圆_1_拷贝" data-name="椭圆 1 拷贝"><path class="cls-15" d="M894.67,1100.63c-17.31-1.14-31.91,6.6-32.62,17.27s12.77,20.25,30.08,21.39,31.91-6.6,32.61-17.27S912,1101.77,894.67,1100.63Zm297.08-39.79c-2.18-10.48-17.71-16.1-34.7-12.56s-29,14.89-26.8,25.36,17.72,16.1,34.7,12.56S1193.93,1071.31,1191.75,1060.84Z"/></g><g id="椭圆_1" data-name="椭圆 1"><path class="cls-16" d="M917.43,1010.19a8.25,8.25,0,1,0,8.25,8.25A8.26,8.26,0,0,0,917.43,1010.19Z"/></g><g id="椭圆_1_拷贝_2" data-name="椭圆 1 拷贝 2"><path class="cls-16" d="M1088.9,972.89a8.25,8.25,0,1,0,8.25,8.25A8.25,8.25,0,0,0,1088.9,972.89Z"/></g><polygon class="cls-20" points="2058.63 2008.7 2058.63 1931.87 2261.81 1931.87 2058.63 2008.7"/><polygon class="cls-21" points="411.63 1646.9 250.27 1646.9 337.21 1827.81 250.27 2008.72 590.72 2008.72 411.63 1940.67 411.63 1646.9"/><polygon class="cls-20" points="590.72 2008.72 590.72 1940.67 411.63 1940.67 590.72 2008.72"/><polygon class="cls-21" points="2237.6 1646.9 2398.96 1646.9 2312.03 1827.81 2398.96 2008.72 2058.51 2008.72 2237.6 1940.67 2237.6 1646.9"/><polygon class="cls-22" points="1500.02 1578.83 411.63 1578.83 411.63 1646.9 411.63 1940.67 590.72 1940.67 1500.02 1940.67 2058.51 1940.67 2237.6 1940.67 2237.6 1646.9 2237.6 1578.83 1500.02 1578.83"/><g id="萌"><path class="cls-16" d="M922.74,1654.59l-57.19-2.12c1-4.68,4.24-26.48,4.24-26.48-3.58-4.77-28.6-8.47-28.6-8.47-2,2.64-11.65,33.89-11.65,33.89l-87.89-2.12-4.24-32.83c-5.44-2.47-33.89,1.06-33.89,1.06-.7,7.62,2.12,30.71,2.12,30.71H647.39c-4.92,11.51,0,29.65,0,29.65,11.52.66,61.43,3.18,61.43,3.18l5.29,39.19c22.76-.73,32.83-4.24,32.83-4.24l-2.12-33.89,76.25,2.12c-1.6,5-5.29,27.53-5.29,27.53,9.66,8,32.83,8.48,32.83,8.48,1.74-4,9.53-35,9.53-35H918.5C923.7,1676.88,922.74,1654.59,922.74,1654.59Zm-173.68,87.89c-51-2.53-79.43-2.11-79.43-2.11-6.41.38-9,4.29-10,7.67l-.62-.26s-6,82.12,1.06,130.26c0,0,45.79,9.94,103.78,2.12,3.93-13.68,2.12-117.55,2.12-117.55C764.23,1742.25,749.06,1742.48,749.06,1742.48Zm-16.95,108-40.24-1.06V1824s20.37,4.11,32.83,3.18c0,0,7.57-18.59,5.3-30.71,0,0-19.33-6.3-38.13-6.36v-21c21.08,3.22,41.3,4.08,41.3,4.08Zm151.44-126c-18-2.15-79.42-1.06-79.42-1.06-23.61.3-22.24,25.42-22.24,25.42-3.17,32.67-8.47,143-8.47,143,14.9,8.6,34.94,1.06,34.94,1.06l2.12-37.07c13.37,2.9,34.95,2.12,34.95,2.12,2.87-7.72,2.12-28.6,2.12-28.6L813.66,1824V1809.2c11.1,3.26,37.06,3.18,37.06,3.18,2.93-7,3.18-29.65,3.18-29.65l-38.12-4.24,1.06-25.41c21.45,2.16,50.83,2.11,50.83,2.11L873,1872.74,856,1877a36.82,36.82,0,0,0,7.41,24.36,136.36,136.36,0,0,0,44.48-8.47c.69-40.07-3.18-135.56-3.18-135.56C904.14,1727.86,883.55,1724.48,883.55,1724.48Z"/></g><g id="萌_2" data-name="萌 2"><path class="cls-16" d="M1649.23,1654.59l-57.19-2.12c1-4.68,4.24-26.48,4.24-26.48-3.58-4.77-28.6-8.47-28.6-8.47-2,2.64-11.65,33.89-11.65,33.89l-87.9-2.12-4.23-32.83c-5.44-2.47-33.89,1.06-33.89,1.06-.7,7.62,2.12,30.71,2.12,30.71h-58.25c-4.92,11.51,0,29.65,0,29.65,11.52.66,61.42,3.18,61.42,3.18l5.3,39.19c22.76-.73,32.83-4.24,32.83-4.24l-2.12-33.89,76.25,2.12c-1.61,5-5.3,27.53-5.3,27.53,9.66,8,32.83,8.48,32.83,8.48,1.75-4,9.54-35,9.54-35H1645C1650.18,1676.88,1649.23,1654.59,1649.23,1654.59Zm-173.68,87.89c-51-2.53-79.43-2.11-79.43-2.11-6.41.38-9,4.29-10,7.67l-.62-.26s-6,82.12,1.06,130.26c0,0,45.78,9.94,103.78,2.12,3.93-13.68,2.12-117.55,2.12-117.55C1490.72,1742.25,1475.55,1742.48,1475.55,1742.48Zm-17,108-40.24-1.06V1824s20.37,4.11,32.83,3.18c0,0,7.57-18.59,5.29-30.71,0,0-19.33-6.3-38.12-6.36v-21c21.08,3.22,41.3,4.08,41.3,4.08Zm151.44-126c-18-2.15-79.42-1.06-79.42-1.06-23.61.3-22.24,25.42-22.24,25.42-3.18,32.67-8.48,143-8.48,143,14.91,8.6,34.95,1.06,34.95,1.06l2.12-37.07c13.37,2.9,35,2.12,35,2.12,2.87-7.72,2.12-28.6,2.12-28.6l-33.89-5.29V1809.2c11.1,3.26,37.06,3.18,37.06,3.18,2.93-7,3.18-29.65,3.18-29.65l-38.13-4.24,1.06-25.41c21.46,2.16,50.84,2.11,50.84,2.11l5.29,117.55-16.94,4.24a36.82,36.82,0,0,0,7.41,24.36,136.36,136.36,0,0,0,44.48-8.47c.69-40.07-3.18-135.56-3.18-135.56C1630.63,1727.86,1610,1724.48,1610,1724.48Z"/></g><g id="姨"><path class="cls-16" d="M1082.65,1808.14c3.4-6,25.42-55.06,25.42-55.06-12.81-10-30.71-9.54-30.71-9.54L1053,1791.2l-18-9.53,21.18-49.78c15.74,2.22,63.55,4.24,63.55,4.24,4.67-6.76,5.29-28.59,5.29-28.59l-56.13-7.42,13.77-32.83c-3.38-7.8-27.53-14.82-27.53-14.82-4.9,6.67-20.13,42.36-20.13,42.36l-33.88-3.18c-4,6.57-4.24,28.6-4.24,28.6l23.3,5.29-27.54,67.78c3.41,5,45.54,29.65,45.54,29.65l-16.94,35c14.41,14.18,26.47,13.77,26.47,13.77,5.64-3.18,21.18-33.89,21.18-33.89l27.54,12.71c6.83-6.31,13.76-25.42,13.76-25.42C1108.86,1822.83,1082.65,1808.14,1082.65,1808.14Zm211.8-137.67c7.51-1.08,7.42-7.41,7.42-7.41v-21.18c-1.43-4.87-26.48-4.24-26.48-4.24l-38.65.28c.22-1.3.39-2.46.53-3.46,0,0,3.7-10.3-2.12-14.82l-25.42-4.24s-2.4,8.57-6.31,22.75l-77.35.55c-3.94,6.32-2.12,24.36-2.12,24.36,1.3,8.59,13.77,8.47,13.77,8.47l56.67-.38-1.74,6.43c-31.08-.65-59.17-.75-59.17-.75-3.75,12.81-2.11,30.71-2.11,30.71l52.66,2.16c-1.89,7.14-3.83,14.46-5.78,21.89l-45.83-.75c-9.55-.12-11.65,9.53-11.65,9.53-6,27.4,2.12,74.13,2.12,74.13,8.57.62,20.55,1.24,33.95,1.82-7.11,29.7-12.71,55.56-14.88,71.25,0,0,6,8.36,31.77,7.41,0,0,8.82-33.8,19.91-77.26,36.09,1.23,70.1,2.07,70.1,2.07l-3.17,18H1241.5c-5.5-.17-6.35,5.29-6.35,5.29v13.77c-7.38-4.21-30.71-12.71-30.71-12.71-6.9,5.85-15.89,25.42-15.89,25.42,36,25,74.13,35,74.13,35,7.22-8,14.83-26.48,14.83-26.48-1.8-1.65-27.53-13.77-27.53-13.77,27.2.24,36-2.12,36-2.12,9-13.67,13.77-44.47,13.77-44.47,4.4-26.32-15.89-28.6-15.89-28.6l-82.25-2.74c1.81-7.17,3.64-14.44,5.46-21.72,32.48.64,60.91.1,60.91.1,27-2.63,27.53-15.88,27.53-15.88,2.74-7.63,1.06-41.3,1.06-41.3-2.6-27.62-30.71-26.48-30.71-26.48-8.34-1.07-22.18-1.87-37.83-2.47q.93-4,1.78-7.68Zm-130,114.63-7.72-.25,2.12-22.24c3.61.26,7.33.49,11.12.7C1168.15,1770.61,1166.3,1777.9,1164.5,1785.1Zm96.07-72.27V1733l-45.44-.75c1.77-7.16,3.49-14.2,5.14-21Z"/></g><g id="嫂"><path class="cls-16" d="M1786.19,1709.08l12.5-30.89c-3.57-7.12-27.54-12.82-27.54-12.82-4.61,6.35-18.46,39.94-18.46,39.94l-33.42-1.81c-3.71,6.22-3.27,26.65-3.27,26.65l23.08,4.13L1714.14,1798c3.51,4.48,45.72,26,45.72,26l-15.56,33c14.63,12.66,26.47,11.87,26.47,11.87,5.45-3.13,19.76-32.12,19.76-32.12l27.48,10.86c6.52-6.08,12.74-24,12.74-24-1.38-2-27.61-14.78-27.61-14.78,3.15-5.71,23.25-51.9,23.25-51.9-12.91-8.88-30.5-7.81-30.5-7.81l-22.45,45-18-8.23,19.25-46.85c15.55,1.53,62.63,1.8,62.63,1.8,4.38-6.42,4.3-26.68,4.3-26.68Zm219.93,45.05c4.14-24.74,3.17-72,3.17-72-1.54-24.89-25.41-24.36-25.41-24.36l-37.07-3.17c-2.36,4.25-3.17,11.67-3.38,18.15-.74-17.72-1.7-32.89-3-41.45,0,0-14.4-7.47-32.83,0l.61,23.15-7-25.27-75.19,13.77c1.78,25.87,5.3,31.77,5.3,31.77,3.93.56,16.94-2.12,16.94-2.12-4.57,29.67-5.29,75.19-5.29,75.19,1.32,21,21.18,21.18,21.18,21.18,13.09,1.68,30.12,3.15,47.21,4.38l.44,16.8s-50.8.11-61.42,4.24c0,0-.86,24.5,5.3,28.59,0,0-7.52,2.72,82.6,3.18l-9.53,16.94L1879,1827.21s-9.2,18.87-10.59,31.77l44.48,15.88-10.59,23.3s13.79,12.58,28.6,11.65l13.76-24.36,44.48,12.71s11-23.37,12.71-30.71l-40.24-13.77,11.65-24.36s14.32-31.52-5.3-34.94l-22.24-2.12s0-6.42-.11-16.74c21.77,1.24,38.24,1.91,38.24,1.91C2004.79,1776.12,2006.12,1754.13,2006.12,1754.13Zm-130.26-15.88,1.06-14.83,27.53,2.12c2-3.16,4.24-29.65,4.24-29.65-4-1.9-28.6-3.18-28.6-3.18l1.06-22.24-6.35-2.12,33.6-8.14,2.15,80.68Zm99.54-42.36c-4.07,0-27.53-2.12-27.53-2.12-3.42,10.48-2.12,27.53-2.12,27.53,7.17,4.43,27.54,7.42,27.54,7.42v16.94l-28-2.13c-.28-18.17-.71-39-1.36-58.19l31.5,5.25Z"/></g></svg>